<svg width="222" height="213" version="1.1" xmlns="http://www.w3.org/2000/svg" desc="Created with imagetracer.js version 1.2.6" ><path fill="rgb(5,29,49)" stroke="rgb(5,29,49)" stroke-width="1" opacity="0.996078431372549" d="M 157.5 23 L 158 26.5 L 157 26.5 L 157.5 23 Z " /><path fill="rgb(5,29,49)" stroke="rgb(5,29,49)" stroke-width="1" opacity="0.996078431372549" d="M 169.5 29 L 170.5 31 L 169.5 29 Z " /><path fill="rgb(5,29,49)" stroke="rgb(5,29,49)" stroke-width="1" opacity="0.996078431372549" d="M 160.5 30 L 166.5 39 L 168.5 38 L 172.5 44 L 177.5 48 L 179 47.5 Q 176.8 48.8 179.5 50 Q 181 47.5 182.5 51 Q 184.8 50.3 184 52.5 L 184 54.5 L 190.5 63 L 191.5 53 L 192 63.5 L 190 64.5 Q 181.9 51.1 169.5 42 L 161 35.5 L 160.5 30 Z " /><path fill="rgb(5,29,49)" stroke="rgb(5,29,49)" stroke-width="1" opacity="0.996078431372549" d="M 174.5 33 L 181.5 41 L 174.5 33 Z " /><path fill="rgb(5,29,49)" stroke="rgb(5,29,49)" stroke-width="1" opacity="0.996078431372549" d="M 158.5 38 Q 173.6 48.4 185 62.5 L 188 66.5 L 188 69.5 L 187 69.5 L 187 66.5 L 168.5 47 Q 161.1 43.2 158.5 38 Z " /><path fill="rgb(5,29,49)" stroke="rgb(5,29,49)" stroke-width="1" opacity="0.996078431372549" d="M 158.5 41 L 159 49.5 L 158 49.5 L 158.5 41 Z " /><path fill="rgb(5,29,49)" stroke="rgb(5,29,49)" stroke-width="1" opacity="0.996078431372549" d="M 183.5 42 L 185.5 45 L 183.5 42 Z " /><path fill="rgb(5,29,49)" stroke="rgb(5,29,49)" stroke-width="1" opacity="0.996078431372549" d="M 187.5 47 L 189.5 50 L 187.5 47 Z " /><path fill="rgb(5,29,49)" stroke="rgb(5,29,49)" stroke-width="1" opacity="0.996078431372549" d="M 157.5 51 L 158 54.5 L 157 54.5 L 157.5 51 Z " /><path fill="rgb(5,29,49)" stroke="rgb(5,29,49)" stroke-width="1" opacity="0.996078431372549" d="M 156.5 56 L 157 59.5 L 155.5 63 L 155 60.5 L 156.5 56 Z " /><path fill="rgb(5,29,49)" stroke="rgb(5,29,49)" stroke-width="1" opacity="0.996078431372549" d="M 195 60 L 197 60.5 Q 194.3 62.3 196 68.5 L 204 85.5 L 203 85.5 L 196 72.5 L 195 60 Z " /><path fill="rgb(5,29,49)" stroke="rgb(5,29,49)" stroke-width="1" opacity="0.996078431372549" d="M 154.5 64 L 155 66.5 L 152.5 72 L 152 70.5 L 154.5 64 Z " /><path fill="rgb(5,29,49)" stroke="rgb(5,29,49)" stroke-width="1" opacity="0.996078431372549" d="M 186.5 71 L 187 72.5 L 166.5 91 Q 164.8 87.3 157.5 89 L 149 80.5 L 151.5 73 L 152 74.5 L 150 79.5 L 157.5 88 L 162.5 87 L 166.5 90 L 181 78 Q 179.9 75.3 182.5 76 L 186.5 71 Z " /><path fill="rgb(5,29,49)" stroke="rgb(5,29,49)" stroke-width="1" opacity="0.996078431372549" d="M 190.5 74 L 194 75.5 Q 202.9 88.6 207 106.5 L 206 106.5 Q 201.4 88.4 193 75 L 190.5 75 L 170 94.5 Q 171.1 101.6 167 103.5 Q 176.7 116.8 182.5 134 L 184.5 133 L 187 134 L 186 138 L 188 138 Q 186.9 135.3 189.5 136 L 190.5 137 L 195 132.5 L 205.5 115 L 206 116.5 Q 199.3 130.8 188.5 141 L 183 140 Q 177.6 119.4 166 103.5 Q 170.3 101.3 169 93.5 L 171.5 91 L 190.5 74 Z " /><path fill="rgb(5,29,49)" stroke="rgb(5,29,49)" stroke-width="1" opacity="0.996078431372549" d="M 146.5 83 L 154 90.5 L 154 93.5 Q 151.5 95 153 100.5 L 151.5 102 L 128.5 117 L 130.5 114 L 152 101 L 153 91.5 L 146 84.5 L 146.5 83 Z " /><path fill="rgb(5,29,49)" stroke="rgb(5,29,49)" stroke-width="1" opacity="0.996078431372549" d="M 145.5 86 L 146 87.5 Q 135.8 105.3 121.5 119 L 128 111.5 L 145.5 86 Z " /><path fill="rgb(5,29,49)" stroke="rgb(5,29,49)" stroke-width="1" opacity="0.996078431372549" d="M 204.5 87 L 206 90.5 L 205 90.5 L 204.5 87 Z " /><path fill="rgb(5,29,49)" stroke="rgb(5,29,49)" stroke-width="1" opacity="0.996078431372549" d="M 154.5 104 L 162.5 105 L 164 106.5 Q 174.5 122.5 180 143.5 L 176.5 152 L 147.5 170 L 148.5 168 Q 164.5 160.5 177 149.5 Q 176.3 143.8 179 141.5 L 177.5 138 L 175.5 139 L 173.5 135 L 172 135.5 Q 170.9 132.2 173.5 133 L 175.5 134 L 175 132.5 L 164 108.5 L 161.5 106 L 155.5 105 L 147 110.5 L 149 111.5 L 147.5 112 L 145.5 112 L 144 112.5 L 146 113.5 L 143 115.5 Q 143.8 113.3 141.5 114 L 140.5 116 L 142 116.5 L 140.5 117 L 138.5 116 L 128 122.5 L 129 124.5 L 128 127 L 125.5 126 L 123.5 130 L 120 131.5 L 123 133.5 L 121 134.5 L 122 138.5 L 119 139.5 L 120.5 142 L 122 141.5 L 121 143.5 L 136 169.5 L 133 167.5 L 113 130.5 L 154.5 104 Z M 117 129 L 114 130 L 117 137 L 119 136 L 117 132 L 118 130 L 117 129 Z " /><path fill="rgb(5,29,49)" stroke="rgb(5,29,49)" stroke-width="1" opacity="0.996078431372549" d="M 87.5 109 L 106 129.5 L 103 127.5 L 90 113.5 L 87.5 109 Z " /><path fill="rgb(5,29,49)" stroke="rgb(5,29,49)" stroke-width="1" opacity="0.996078431372549" d="M 85.5 110 L 84.5 112 L 53.5 134 L 35.5 143 L 35.5 142 L 53.5 133 L 85.5 110 Z " /><path fill="rgb(5,29,49)" stroke="rgb(5,29,49)" stroke-width="1" opacity="0.996078431372549" d="M 120.5 120 L 119.5 122 L 120.5 120 Z " /><path fill="rgb(5,29,49)" stroke="rgb(5,29,49)" stroke-width="1" opacity="0.996078431372549" d="M 206.5 123 L 206 124.5 L 204.5 127 L 205 125.5 L 206.5 123 Z " /><path fill="rgb(5,29,49)" stroke="rgb(5,29,49)" stroke-width="1" opacity="0.996078431372549" d="M 203.5 128 L 203 129.5 L 194 141.5 L 193 147.5 L 189 153.5 L 190 154.5 L 190 163.5 L 189 163.5 Q 190.3 156.7 188 153.5 Q 191.7 150.7 192 144.5 L 191 143.5 L 195 139.5 L 203.5 128 Z " /><path fill="rgb(5,29,49)" stroke="rgb(5,29,49)" stroke-width="1" opacity="0.996078431372549" d="M 100.5 131 L 102 131.5 L 98.5 133 L 98.5 132 L 100.5 131 Z " /><path fill="rgb(5,29,49)" stroke="rgb(5,29,49)" stroke-width="1" opacity="0.996078431372549" d="M 95.5 133 L 97 133.5 Q 82.8 141.8 64.5 146 L 64.5 145 L 75.5 142 L 77.5 140 Q 88.2 138.2 95.5 133 Z " /><path fill="rgb(5,29,49)" stroke="rgb(5,29,49)" stroke-width="1" opacity="0.996078431372549" d="M 107.5 133 L 111 135.5 L 131 172.5 L 126.5 180 L 125 179.5 L 127 179 L 130 171.5 L 109 134 L 104 136.5 L 101 140.5 L 102.5 143 L 95.5 142 L 95.5 144 L 93 142.5 L 92.5 141 L 91.5 143 L 89.5 143 L 88 143.5 Q 90.2 144.8 87.5 146 L 86 145.5 L 86.5 144 L 80 146.5 L 82 147.5 L 79.5 148 L 77 147 L 75 152 L 72 153.5 L 74 156.5 Q 72.3 160.8 70.5 158 L 69 158.5 L 83 181.5 L 88.5 187 L 93 189.5 L 91.5 189 Q 86 188.6 84 184.5 Q 72.2 169.3 64 150.5 Q 88 144 107.5 133 Z " /><path fill="rgb(5,29,49)" stroke="rgb(5,29,49)" stroke-width="1" opacity="0.996078431372549" d="M 60.5 146 L 63 146.5 L 60.5 147 L 60.5 146 Z " /><path fill="rgb(5,29,49)" stroke="rgb(5,29,49)" stroke-width="1" opacity="0.996078431372549" d="M 54.5 147 L 59 147.5 L 54.5 148 L 54.5 147 Z " /><path fill="rgb(5,29,49)" stroke="rgb(5,29,49)" stroke-width="1" opacity="0.996078431372549" d="M 37.5 148 L 50 148.5 L 37.5 149 L 37.5 148 Z " /><path fill="rgb(5,29,49)" stroke="rgb(5,29,49)" stroke-width="1" opacity="0.996078431372549" d="M 28.5 151 L 39.5 153 L 49.5 153 L 61 151 L 69 168.5 L 83 189.5 L 81 190.5 L 82 188.5 Q 68.4 172.6 59.5 152 Q 51.2 155.7 37.5 154 L 28.5 152 L 28.5 151 Z " /><path fill="rgb(5,29,49)" stroke="rgb(5,29,49)" stroke-width="1" opacity="0.996078431372549" d="M 179.5 154 L 183.5 155 L 185 154.5 L 184.5 168 L 184 156 L 179.5 155 L 176 157.5 L 177 160 L 173.5 161 L 171.5 160 L 166 164.5 L 166.5 166 L 164.5 165 L 159 168.5 L 161 169.5 L 154.5 173 L 152.5 172 L 146 176.5 Q 146.8 180.8 144 181.5 L 152 192.5 L 150 191.5 L 143 181.5 L 146.5 174 L 158.5 168 L 179.5 154 Z " /><path fill="rgb(5,29,49)" stroke="rgb(5,29,49)" stroke-width="1" opacity="0.996078431372549" d="M 29.5 156 L 30.5 158 L 29.5 156 Z " /><path fill="rgb(5,29,49)" stroke="rgb(5,29,49)" stroke-width="1" opacity="0.996078431372549" d="M 193.5 158 L 192.5 160 L 193.5 158 Z " /><path fill="rgb(5,29,49)" stroke="rgb(5,29,49)" stroke-width="1" opacity="0.996078431372549" d="M 31.5 159 L 32.5 161 L 31.5 159 Z " /><path fill="rgb(5,29,49)" stroke="rgb(5,29,49)" stroke-width="1" opacity="0.996078431372549" d="M 36.5 166 L 37.5 168 L 36.5 166 Z " /><path fill="rgb(5,29,49)" stroke="rgb(5,29,49)" stroke-width="1" opacity="0.996078431372549" d="M 46.5 176 L 50.5 181 L 46.5 176 Z " /><path fill="rgb(5,29,49)" stroke="rgb(5,29,49)" stroke-width="1" opacity="0.996078431372549" d="M 176.5 177 L 175.5 179 L 176.5 177 Z " /><path fill="rgb(5,29,49)" stroke="rgb(5,29,49)" stroke-width="1" opacity="0.996078431372549" d="M 122.5 180 L 124 180.5 L 117.5 183 L 117.5 182 L 122.5 180 Z " /><path fill="rgb(5,29,49)" stroke="rgb(5,29,49)" stroke-width="1" opacity="0.996078431372549" d="M 128.5 182 L 133.5 184 L 139.5 184 L 145 189.5 L 148 194.5 L 146 195.5 Q 148.5 194 145 192.5 L 139.5 185 Q 132.5 186 129.5 183 L 121.5 187 L 101.5 193 L 96.5 193 L 93.5 195 L 93 193 Q 113 190.3 128.5 182 Z " /><path fill="rgb(5,29,49)" stroke="rgb(5,29,49)" stroke-width="1" opacity="0.996078431372549" d="M 58.5 185 L 78 189.5 L 72.5 190 L 60.5 187 L 58.5 185 Z " /><path fill="rgb(5,29,49)" stroke="rgb(5,29,49)" stroke-width="1" opacity="0.996078431372549" d="M 107.5 185 L 110 185.5 L 107.5 186 L 107.5 185 Z " /><path fill="rgb(5,29,49)" stroke="rgb(5,29,49)" stroke-width="1" opacity="0.996078431372549" d="M 165.5 185 L 164.5 187 L 165.5 185 Z " /><path fill="rgb(5,29,49)" stroke="rgb(5,29,49)" stroke-width="1" opacity="0.996078431372549" d="M 162.5 187 L 161.5 189 L 162.5 187 Z " /><path fill="rgb(5,29,49)" stroke="rgb(5,29,49)" stroke-width="1" opacity="0.996078431372549" d="M 70.5 192 Q 75.1 194.9 83.5 194 L 92 199.5 L 89.5 198 L 82.5 195 L 81.5 197 L 83 197.5 L 81.5 198 L 71.5 194 L 70.5 192 Z " /><path fill="rgb(5,29,49)" stroke="rgb(5,29,49)" stroke-width="1" opacity="0.996078431372549" d="M 94.5 196 L 100 200.5 L 98.5 200 L 94.5 196 Z " /><path fill="rgb(5,29,49)" stroke="rgb(5,29,49)" stroke-width="1" opacity="0.996078431372549" d="M 131 198 Q 135.1 196.7 134 200 Q 129.9 201.3 131 198 Z " /><path fill="rgb(5,29,49)" stroke="rgb(5,29,49)" stroke-width="1" opacity="0.996078431372549" d="M 101.5 199 L 105 199.5 L 101.5 200 L 101.5 199 Z " /><path fill="rgb(5,29,49)" stroke="rgb(5,29,49)" stroke-width="1" opacity="0.996078431372549" d="M 127.5 200 L 130 200.5 L 127.5 201 L 127.5 200 Z " /><path fill="rgb(5,29,49)" stroke="rgb(5,29,49)" stroke-width="1" opacity="0.996078431372549" d="M 102.5 201 L 105 201.5 L 102.5 202 L 102.5 201 Z " /><path fill="rgb(5,29,49)" stroke="rgb(5,29,49)" stroke-width="1" opacity="0.996078431372549" d="M 120.5 201 L 123 201.5 L 120.5 202 L 120.5 201 Z " /><path fill="rgb(4,31,61)" stroke="rgb(4,31,61)" stroke-width="1" opacity="0.1411764705882353" d="M 157.5 20 Q 173.6 27.9 185 40.5 L 193 52.5 L 192 52.5 L 181.5 38 Q 171.6 28.4 158.5 22 L 157.5 20 Z " /><path fill="rgb(4,31,61)" stroke="rgb(4,31,61)" stroke-width="1" opacity="0.1411764705882353" d="M 195.5 55 L 202 65.5 L 207 78.5 L 210 92.5 L 210 102.5 L 209 102.5 L 209 92.5 L 207 82.5 L 203 70.5 L 195 56.5 L 195.5 55 Z " /><path fill="rgb(4,31,61)" stroke="rgb(4,31,61)" stroke-width="1" opacity="0.1411764705882353" d="M 209.5 109 L 210 112.5 L 208.5 115 L 208 113.5 L 209.5 109 Z " /><path fill="rgb(4,31,61)" stroke="rgb(4,31,61)" stroke-width="1" opacity="0.1411764705882353" d="M 209.5 118 L 210 122.5 Q 204.8 150.8 188.5 168 L 190 165.5 L 204 140.5 L 209.5 118 Z " /><path fill="rgb(4,31,61)" stroke="rgb(4,31,61)" stroke-width="1" opacity="0.1411764705882353" d="M 25.5 150 L 35 166.5 L 45 176.5 L 45 178 L 54 184.5 L 51.5 183 L 38 171.5 L 27 156.5 Q 24 154 25.5 150 Z " /><path fill="rgb(4,31,61)" stroke="rgb(4,31,61)" stroke-width="1" opacity="0.1411764705882353" d="M 185.5 169 L 186 170.5 Q 173.6 185.6 154.5 194 L 154.5 193 Q 173 185 185 170.5 L 185.5 169 Z " /><path fill="rgb(4,31,61)" stroke="rgb(4,31,61)" stroke-width="1" opacity="0.1411764705882353" d="M 55.5 185 L 61 187.5 L 59.5 188 Q 55.5 187.5 55.5 185 Z " /><path fill="rgb(4,31,61)" stroke="rgb(4,31,61)" stroke-width="1" opacity="0.1411764705882353" d="M 66.5 192 L 71 194.5 L 69.5 195 L 66.5 192 Z " /><path fill="rgb(4,31,61)" stroke="rgb(4,31,61)" stroke-width="1" opacity="0.1411764705882353" d="M 72.5 195 L 82 198.5 L 79.5 199 L 72.5 196 L 72.5 195 Z " /><path fill="rgb(4,31,61)" stroke="rgb(4,31,61)" stroke-width="1" opacity="0.1411764705882353" d="M 149.5 195 L 148.5 197 L 147 196.5 L 149.5 195 Z " /><path fill="rgb(4,31,61)" stroke="rgb(4,31,61)" stroke-width="1" opacity="0.1411764705882353" d="M 83.5 199 L 93 201.5 L 90.5 202 L 83.5 200 L 83.5 199 Z " /><path fill="rgb(4,31,61)" stroke="rgb(4,31,61)" stroke-width="1" opacity="0.1411764705882353" d="M 134.5 200 L 137 200.5 L 134.5 201 L 134.5 200 Z " /><path fill="rgb(4,31,61)" stroke="rgb(4,31,61)" stroke-width="1" opacity="0.1411764705882353" d="M 98.5 201 L 102.5 203 L 122.5 203 L 132.5 201 L 132.5 202 L 122.5 204 L 102.5 204 Q 98.5 203.5 98.5 201 Z " /><path fill="rgb(4,89,152)" stroke="rgb(4,89,152)" stroke-width="1" opacity="0.49019607843137253" d="M 108.5 9 L 126.5 9 L 145.5 14 L 153 18.5 L 151.5 19 L 146.5 16 L 132.5 12 L 127.5 11 L 111.5 11 L 110.5 10 Q 108.7 12.5 108.5 9 Z " /><path fill="rgb(4,89,152)" stroke="rgb(4,89,152)" stroke-width="1" opacity="0.49019607843137253" d="M 95.5 10 L 100 10.5 L 96.5 12 L 95.5 10 Z " /><path fill="rgb(4,89,152)" stroke="rgb(4,89,152)" stroke-width="1" opacity="0.49019607843137253" d="M 88.5 11 L 94 11.5 L 77.5 16 L 63.5 23 L 65.5 20 L 88.5 11 Z " /><path fill="rgb(4,89,152)" stroke="rgb(4,89,152)" stroke-width="1" opacity="0.49019607843137253" d="M 60.5 23 L 62 23.5 L 49.5 33 L 51 30.5 Q 50.3 28.3 52.5 29 L 60.5 23 Z " /><path fill="rgb(4,89,152)" stroke="rgb(4,89,152)" stroke-width="1" opacity="0.49019607843137253" d="M 38.5 42 L 40 42.5 Q 24.7 56.9 19 80 L 17 79.5 Q 23.6 56.6 38.5 42 Z " /><path fill="rgb(4,89,152)" stroke="rgb(4,89,152)" stroke-width="1" opacity="0.49019607843137253" d="M 16.5 84 L 17 88.5 L 15 95.5 L 15 116.5 L 16 117.5 L 17 128.5 L 21 140.5 L 19 139.5 L 14 120.5 L 13 102.5 L 14 101.5 L 14 91.5 L 16.5 84 Z " /><path fill="rgb(6,90,152)" stroke="rgb(6,90,152)" stroke-width="1" opacity="0.996078431372549" d="M 101.5 13 L 104 13.5 L 95.5 17 L 82 27.5 L 81.5 30 L 81 27.5 Q 89.5 18.5 101.5 13 Z " /><path fill="rgb(6,90,152)" stroke="rgb(6,90,152)" stroke-width="1" opacity="0.996078431372549" d="M 105.5 13 Q 130.9 17.1 147 30.5 Q 148 35 145.5 36 L 138.5 40 L 140.5 37 L 146 33.5 Q 147.5 29.1 144.5 30 L 127.5 20 L 113.5 15 L 105.5 14 L 105.5 13 Z " /><path fill="rgb(6,90,152)" stroke="rgb(6,90,152)" stroke-width="1" opacity="0.996078431372549" d="M 87.5 17 L 86.5 19 L 87.5 17 Z " /><path fill="rgb(6,90,152)" stroke="rgb(6,90,152)" stroke-width="1" opacity="0.996078431372549" d="M 70.5 19 L 72 19.5 L 69.5 21 L 70.5 19 Z " /><path fill="rgb(6,90,152)" stroke="rgb(6,90,152)" stroke-width="1" opacity="0.996078431372549" d="M 84.5 19 L 78.5 26 L 77 25.5 L 84.5 19 Z " /><path fill="rgb(6,90,152)" stroke="rgb(6,90,152)" stroke-width="1" opacity="0.996078431372549" d="M 151.5 20 L 153 21.5 L 153 28 Q 149.2 29 148 26.5 L 149.5 27 L 152 27 L 152 21.5 L 151.5 20 Z " /><path fill="rgb(6,90,152)" stroke="rgb(6,90,152)" stroke-width="1" opacity="0.996078431372549" d="M 66.5 21 L 68 21.5 L 65.5 23 L 66.5 21 Z " /><path fill="rgb(6,90,152)" stroke="rgb(6,90,152)" stroke-width="1" opacity="0.996078431372549" d="M 145.5 24 L 146.5 26 L 145.5 24 Z " /><path fill="rgb(6,90,152)" stroke="rgb(6,90,152)" stroke-width="1" opacity="0.996078431372549" d="M 74.5 26 L 76 26.5 L 71.5 29 L 71.5 28 L 74.5 26 Z " /><path fill="rgb(6,90,152)" stroke="rgb(6,90,152)" stroke-width="1" opacity="0.996078431372549" d="M 70.5 32 Q 72.8 31.3 72 33.5 L 72 35.5 L 68 56.5 L 66.5 76 L 66 65.5 L 67 64.5 L 67 55.5 L 68 54.5 L 69 43.5 L 72 34.5 L 70.5 32 Z " /><path fill="rgb(6,90,152)" stroke="rgb(6,90,152)" stroke-width="1" opacity="0.996078431372549" d="M 61.5 33 L 69 33.5 L 55.5 35 L 49.5 37 L 47 39.5 Q 36 61 33.5 91 L 33 84.5 L 38 59.5 L 47 37 L 61.5 33 Z " /><path fill="rgb(6,90,152)" stroke="rgb(6,90,152)" stroke-width="1" opacity="0.996078431372549" d="M 79.5 33 L 85 35.5 L 83.5 36 Q 79.5 35.5 79.5 33 Z " /><path fill="rgb(6,90,152)" stroke="rgb(6,90,152)" stroke-width="1" opacity="0.996078431372549" d="M 76 34 L 78 34.5 L 74 49.5 L 72 76 L 76.5 77 L 83.5 73 L 82.5 75 L 74.5 78 L 71 75.5 L 72 55.5 L 76 34 Z " /><path fill="rgb(6,90,152)" stroke="rgb(6,90,152)" stroke-width="1" opacity="0.996078431372549" d="M 86.5 36 Q 102.7 42.3 115 52.5 Q 116.5 56.9 113.5 56 L 110.5 58 L 111.5 56 L 114 54.5 Q 115.1 51.2 112.5 52 Q 101.4 42.6 86.5 37 L 86.5 36 Z " /><path fill="rgb(6,90,152)" stroke="rgb(6,90,152)" stroke-width="1" opacity="0.996078431372549" d="M 149.5 37 Q 151.2 39.8 156.5 39 L 158 38.5 L 157.5 41 L 147.5 39 L 126 53.5 L 126 56.5 L 138.5 69 L 143 72.5 L 147.5 78 L 148.5 76 L 149 77.5 L 147.5 79 L 125 56.5 Q 124 52 126.5 51 L 149.5 37 Z " /><path fill="rgb(6,90,152)" stroke="rgb(6,90,152)" stroke-width="1" opacity="0.996078431372549" d="M 135.5 40 L 137 40.5 L 123.5 49 L 124.5 47 L 135.5 40 Z " /><path fill="rgb(6,90,152)" stroke="rgb(6,90,152)" stroke-width="1" opacity="0.996078431372549" d="M 107.5 42 L 108.5 44 L 107.5 42 Z " /><path fill="rgb(6,90,152)" stroke="rgb(6,90,152)" stroke-width="1" opacity="0.996078431372549" d="M 156.5 43 L 157 49.5 L 156 49.5 L 156.5 43 Z " /><path fill="rgb(6,90,152)" stroke="rgb(6,90,152)" stroke-width="1" opacity="0.996078431372549" d="M 110.5 44 L 111.5 46 L 110.5 44 Z " /><path fill="rgb(6,90,152)" stroke="rgb(6,90,152)" stroke-width="1" opacity="0.996078431372549" d="M 39.5 45 L 39 46.5 L 38.5 48 L 38 46.5 L 39.5 45 Z " /><path fill="rgb(6,90,152)" stroke="rgb(6,90,152)" stroke-width="1" opacity="0.996078431372549" d="M 113.5 46 L 115.5 49 L 113.5 46 Z " /><path fill="rgb(6,90,152)" stroke="rgb(6,90,152)" stroke-width="1" opacity="0.996078431372549" d="M 37.5 49 L 38 50.5 Q 32.2 62.2 30.5 78 L 30 73.5 Q 32.3 59.8 37.5 49 Z " /><path fill="rgb(6,90,152)" stroke="rgb(6,90,152)" stroke-width="1" opacity="0.996078431372549" d="M 155.5 51 L 156 55.5 L 155 55.5 L 155.5 51 Z " /><path fill="rgb(6,90,152)" stroke="rgb(6,90,152)" stroke-width="1" opacity="0.996078431372549" d="M 154.5 57 L 155 59.5 L 154 59.5 L 154.5 57 Z " /><path fill="rgb(6,90,152)" stroke="rgb(6,90,152)" stroke-width="1" opacity="0.996078431372549" d="M 108.5 58 L 107.5 60 L 100.5 64 L 101.5 62 L 108.5 58 Z " /><path fill="rgb(6,90,152)" stroke="rgb(6,90,152)" stroke-width="1" opacity="0.996078431372549" d="M 115.5 59 Q 122.2 57.8 124.5 61 L 147 82.5 L 143.5 87 L 144 85.5 L 145 82.5 L 125.5 63 Q 123.3 58.7 115.5 60 L 79 82.5 L 78.5 84 L 78 81 L 115.5 59 Z " /><path fill="rgb(6,90,152)" stroke="rgb(6,90,152)" stroke-width="1" opacity="0.996078431372549" d="M 153.5 61 L 154 63.5 L 153 63.5 L 153.5 61 Z " /><path fill="rgb(6,90,152)" stroke="rgb(6,90,152)" stroke-width="1" opacity="0.996078431372549" d="M 98.5 64 L 97.5 66 L 95.5 67 L 96.5 65 L 98.5 64 Z " /><path fill="rgb(6,90,152)" stroke="rgb(6,90,152)" stroke-width="1" opacity="0.996078431372549" d="M 93.5 67 L 92.5 69 L 90.5 70 L 91.5 68 L 93.5 67 Z " /><path fill="rgb(6,90,152)" stroke="rgb(6,90,152)" stroke-width="1" opacity="0.996078431372549" d="M 23.5 68 L 22.5 70 L 23.5 68 Z " /><path fill="rgb(6,90,152)" stroke="rgb(6,90,152)" stroke-width="1" opacity="0.996078431372549" d="M 86.5 71 L 85.5 73 L 86.5 71 Z " /><path fill="rgb(6,90,152)" stroke="rgb(6,90,152)" stroke-width="1" opacity="0.996078431372549" d="M 150.5 71 L 151 72.5 L 149.5 75 L 149 73.5 L 150.5 71 Z " /><path fill="rgb(6,90,152)" stroke="rgb(6,90,152)" stroke-width="1" opacity="0.996078431372549" d="M 62.5 77 L 61 79.5 L 57.5 87 L 56 86.5 L 58 86 Q 57.8 79.5 62.5 77 Z " /><path fill="rgb(6,90,152)" stroke="rgb(6,90,152)" stroke-width="1" opacity="0.996078431372549" d="M 29.5 79 L 30 84.5 L 29 84.5 L 29.5 79 Z " /><path fill="rgb(6,90,152)" stroke="rgb(6,90,152)" stroke-width="1" opacity="0.996078431372549" d="M 20.5 81 L 23 85.5 L 21 84.5 L 20.5 81 Z " /><path fill="rgb(6,90,152)" stroke="rgb(6,90,152)" stroke-width="1" opacity="0.996078431372549" d="M 28.5 86 L 29 92.5 L 27 93.5 L 28.5 86 Z " /><path fill="rgb(6,90,152)" stroke="rgb(6,90,152)" stroke-width="1" opacity="0.996078431372549" d="M 18.5 87 L 25 96.5 L 25 100.5 L 24 100.5 L 24 96.5 L 18.5 87 Z " /><path fill="rgb(6,90,152)" stroke="rgb(6,90,152)" stroke-width="1" opacity="0.996078431372549" d="M 23.5 87 L 26 90.5 L 24 89.5 L 23.5 87 Z " /><path fill="rgb(6,90,152)" stroke="rgb(6,90,152)" stroke-width="1" opacity="0.996078431372549" d="M 78.5 87 L 79 88.5 L 77.5 91 L 77 89.5 L 78.5 87 Z " /><path fill="rgb(6,90,152)" stroke="rgb(6,90,152)" stroke-width="1" opacity="0.996078431372549" d="M 142.5 88 L 142 89.5 L 140.5 92 L 141 90.5 L 142.5 88 Z " /><path fill="rgb(6,90,152)" stroke="rgb(6,90,152)" stroke-width="1" opacity="0.996078431372549" d="M 57.5 90 L 59.5 90 L 66.5 95 L 70.5 95 L 73.5 94 L 85 105.5 L 86 108.5 L 83 110.5 L 85 107.5 L 73.5 95 L 66.5 96 L 59.5 91 L 57.5 91 L 35 100 L 31 105.5 L 28 116.5 L 27 127.5 L 26 128.5 L 25.5 143 L 25 127.5 L 29 107.5 L 31.5 103 L 34 101.5 Q 32.8 97.8 36.5 99 L 57.5 90 Z " /><path fill="rgb(6,90,152)" stroke="rgb(6,90,152)" stroke-width="1" opacity="0.996078431372549" d="M 32.5 92 L 33 94.5 L 32 94.5 L 32.5 92 Z " /><path fill="rgb(6,90,152)" stroke="rgb(6,90,152)" stroke-width="1" opacity="0.996078431372549" d="M 77.5 92 L 97.5 113 L 77.5 92 Z " /><path fill="rgb(6,90,152)" stroke="rgb(6,90,152)" stroke-width="1" opacity="0.996078431372549" d="M 169.5 92 L 168.5 94 L 169.5 92 Z " /><path fill="rgb(6,90,152)" stroke="rgb(6,90,152)" stroke-width="1" opacity="0.996078431372549" d="M 139.5 93 L 138.5 95 L 139.5 93 Z " /><path fill="rgb(6,90,152)" stroke="rgb(6,90,152)" stroke-width="1" opacity="0.996078431372549" d="M 137.5 96 L 136.5 98 L 137.5 96 Z " /><path fill="rgb(6,90,152)" stroke="rgb(6,90,152)" stroke-width="1" opacity="0.996078431372549" d="M 135.5 99 L 133.5 102 L 135.5 99 Z " /><path fill="rgb(6,90,152)" stroke="rgb(6,90,152)" stroke-width="1" opacity="0.996078431372549" d="M 15.5 102 L 16 108.5 L 15 108.5 L 15.5 102 Z " /><path fill="rgb(6,90,152)" stroke="rgb(6,90,152)" stroke-width="1" opacity="0.996078431372549" d="M 132.5 103 L 130.5 106 L 132.5 103 Z " /><path fill="rgb(6,90,152)" stroke="rgb(6,90,152)" stroke-width="1" opacity="0.996078431372549" d="M 25.5 105 L 26 107.5 L 25 107.5 L 25.5 105 Z " /><path fill="rgb(6,90,152)" stroke="rgb(6,90,152)" stroke-width="1" opacity="0.996078431372549" d="M 129.5 107 L 127 110.5 L 113.5 126 L 110.5 127 L 98.5 114 L 111.5 126 L 117 121.5 L 116 119.5 L 117.5 120 L 126 111.5 L 129.5 107 Z " /><path fill="rgb(6,90,152)" stroke="rgb(6,90,152)" stroke-width="1" opacity="0.996078431372549" d="M 24.5 109 L 25 111.5 L 24 111.5 L 24.5 109 Z " /><path fill="rgb(6,90,152)" stroke="rgb(6,90,152)" stroke-width="1" opacity="0.996078431372549" d="M 81.5 111 L 79.5 114 L 81.5 111 Z " /><path fill="rgb(6,90,152)" stroke="rgb(6,90,152)" stroke-width="1" opacity="0.996078431372549" d="M 23.5 113 L 24 116.5 L 23 116.5 L 23.5 113 Z " /><path fill="rgb(6,90,152)" stroke="rgb(6,90,152)" stroke-width="1" opacity="0.996078431372549" d="M 77.5 114 L 75.5 117 L 77.5 114 Z " /><path fill="rgb(6,90,152)" stroke="rgb(6,90,152)" stroke-width="1" opacity="0.996078431372549" d="M 73.5 117 L 72.5 119 L 73.5 117 Z " /><path fill="rgb(6,90,152)" stroke="rgb(6,90,152)" stroke-width="1" opacity="0.996078431372549" d="M 22.5 118 L 23 121.5 L 22 121.5 L 22.5 118 Z " /><path fill="rgb(6,90,152)" stroke="rgb(6,90,152)" stroke-width="1" opacity="0.996078431372549" d="M 69.5 120 L 68.5 122 L 69.5 120 Z " /><path fill="rgb(6,90,152)" stroke="rgb(6,90,152)" stroke-width="1" opacity="0.996078431372549" d="M 66.5 122 L 65.5 124 L 66.5 122 Z " /><path fill="rgb(6,90,152)" stroke="rgb(6,90,152)" stroke-width="1" opacity="0.996078431372549" d="M 21.5 123 L 22 127.5 L 21 127.5 L 21.5 123 Z " /><path fill="rgb(6,90,152)" stroke="rgb(6,90,152)" stroke-width="1" opacity="0.996078431372549" d="M 63.5 124 L 62.5 126 L 63.5 124 Z " /><path fill="rgb(6,90,152)" stroke="rgb(6,90,152)" stroke-width="1" opacity="0.996078431372549" d="M 60.5 126 L 59.5 128 L 60.5 126 Z " /><path fill="rgb(6,90,152)" stroke="rgb(6,90,152)" stroke-width="1" opacity="0.996078431372549" d="M 57.5 128 L 56.5 130 L 57.5 128 Z " /><path fill="rgb(6,90,152)" stroke="rgb(6,90,152)" stroke-width="1" opacity="0.996078431372549" d="M 54.5 130 L 53.5 132 L 54.5 130 Z " /><path fill="rgb(6,90,152)" stroke="rgb(6,90,152)" stroke-width="1" opacity="0.996078431372549" d="M 20.5 131 L 21 136.5 L 20 136.5 L 20.5 131 Z " /><path fill="rgb(6,90,152)" stroke="rgb(6,90,152)" stroke-width="1" opacity="0.996078431372549" d="M 51.5 132 L 50.5 134 L 51.5 132 Z " /><path fill="rgb(6,90,152)" stroke="rgb(6,90,152)" stroke-width="1" opacity="0.996078431372549" d="M 44.5 136 L 43.5 138 L 38.5 140 L 38.5 139 L 44.5 136 Z " /><path fill="rgb(6,90,152)" stroke="rgb(6,90,152)" stroke-width="1" opacity="0.996078431372549" d="M 24.5 144 L 27 144.5 L 24.5 145 L 24.5 144 Z " /><path fill="rgb(10,94,155)" stroke="rgb(10,94,155)" stroke-width="1" opacity="1" d="M 115.5 11 Q 138.8 11.2 153 20.5 L 152 27 L 148.5 26 L 147 26.5 L 145.5 24 L 143.5 24 Q 140.9 24.7 142 22 L 139.5 22 L 123.5 14 L 115.5 12 L 115.5 11 Z " /><path fill="rgb(10,94,155)" stroke="rgb(10,94,155)" stroke-width="1" opacity="1" d="M 94.5 12 L 96 12.5 L 90 15 Q 91.3 18 87.5 17 L 84.5 21 L 83.5 20 L 80.5 23 L 77 25.5 L 77.5 27 L 74.5 26 L 68.5 30 L 64.5 30 L 62.5 30 L 52.5 32 L 53.5 30 Q 70.1 17.1 94.5 12 Z " /><path fill="rgb(10,94,155)" stroke="rgb(10,94,155)" stroke-width="1" opacity="1" d="M 104.5 13 L 116.5 16 L 118 15.5 L 117.5 17 L 120.5 16 L 120.5 18 L 124.5 19 L 126 18.5 L 125.5 20 L 140.5 27 L 142 26.5 L 141.5 28 L 146 30 Q 147 34.3 144 35.5 L 144.5 37 L 142.5 36 L 142.5 38 L 140.5 37 L 137.5 41 L 135.5 40 L 134.5 43 L 132.5 42 L 129 44.5 L 129.5 46 L 127.5 46 L 124 47.5 L 124.5 49 L 123 48.5 L 122.5 50 L 120.5 50 L 117.5 49 L 116 49.5 L 113.5 46 L 112 46.5 L 110.5 44 L 109 44.5 L 107.5 42 L 106 42.5 L 105.5 41 L 104 41.5 Q 104.8 38.9 101.5 40 L 99 39 L 98.5 37 L 97 37.5 L 96.5 36 L 95 36.5 L 94.5 35 L 93 35.5 L 92.5 34 L 91 34.5 L 90.5 33 L 89 33.5 L 88.5 32 L 87.5 33 L 83.5 31 L 81 30.5 L 83.5 26 L 86 24.5 L 85.5 23 Q 87 25.5 88.5 22 L 91 20.5 L 90.5 19 L 92.5 19 L 94 18.5 L 93.5 17 L 95.5 17 L 104.5 13 Z " /><path fill="rgb(10,94,155)" stroke="rgb(10,94,155)" stroke-width="1" opacity="1" d="M 67.5 32 Q 72.5 31.5 73 35.5 L 71 35.5 L 72 39.5 L 70 39.5 L 71 44.5 L 70 44.5 L 69.5 43 L 69 48.5 L 69.5 50 L 68 49.5 L 67 64.5 L 68 66.5 L 67 66.5 L 66.5 65 L 66 75.5 L 66.5 77 L 64.5 76 L 61.5 80 Q 60.3 77.8 59 80.5 L 60 82.5 L 58 82.5 L 58 86 Q 55.3 84.9 56 87.5 L 54 87.5 L 53.5 89 L 51 88 L 50.5 90 L 48.5 90 Q 45.2 88.9 46 91.5 L 44 91.5 Q 44.8 94.1 41.5 93 L 33 96 L 32 90.5 L 34 90.5 L 33 82.5 L 34 82.5 L 34.5 84 L 35 77.5 L 34.5 76 L 36 76.5 L 35 71.5 L 37 71.5 L 36 66.5 L 38 66.5 L 37 62.5 L 39 62.5 L 40 56.5 L 39.5 55 L 41 55.5 L 40 52.5 L 42 52.5 L 43 48.5 L 42.5 47 L 44 47.5 L 45 43.5 L 44.5 42 L 46 42.5 L 45 40.5 L 47 40.5 L 46 38.5 L 49 37.5 L 48.5 36 L 51.5 37 L 51.5 35 L 54.5 36 L 61 34.5 L 60.5 33 Q 62.3 35.8 68.5 34 L 68.5 33 L 67.5 32 Z " /><path fill="rgb(10,94,155)" stroke="rgb(10,94,155)" stroke-width="1" opacity="1" d="M 78.5 33 L 81 33.5 L 80.5 35 L 84.5 36 L 86 35.5 Q 85.3 37.8 87.5 37 L 100.5 44 L 102 43.5 L 101.5 45 L 108.5 49 L 110 48.5 L 109.5 50 L 111.5 51 L 113 50.5 L 112.5 52 Q 115.1 51.2 114 54.5 L 111 56.5 L 111.5 58 L 110 57.5 L 109.5 59 L 107.5 59 L 106 59.5 L 106.5 61 L 104.5 60 L 104.5 62 L 102.5 62 L 100 63.5 L 99.5 65 L 97.5 65 L 95 66.5 L 94.5 68 L 92.5 68 L 90 69.5 L 89.5 71 L 88 70.5 L 87.5 72 Q 86.3 69.8 85 72.5 L 84.5 74 L 82.5 74 L 79 75.5 L 79.5 77 L 77.5 76 L 77.5 78 L 72.5 76 L 71 76.5 L 72 75.5 L 72 65.5 L 71 63.5 L 72 63.5 L 72.5 65 L 76 39.5 L 75.5 38 L 77 38.5 L 78.5 33 Z " /><path fill="rgb(10,94,155)" stroke="rgb(10,94,155)" stroke-width="1" opacity="1" d="M 147.5 39 L 157 40 L 153 64.5 L 147.5 78 L 139.5 69 L 129.5 60 L 128.5 61 L 125 57.5 L 126 53.5 L 128.5 51 L 133 48.5 L 132.5 47 L 134.5 47 L 141 43.5 L 140.5 42 L 142.5 43 L 147.5 39 Z " /><path fill="rgb(10,94,155)" stroke="rgb(10,94,155)" stroke-width="1" opacity="1" d="M 39 43 L 41 43.5 L 38 47.5 L 38.5 49 Q 36.3 48.3 37 50.5 L 37.5 52 L 36 51.5 L 35 56.5 L 35.5 58 L 34 57.5 L 35 60.5 L 33 60.5 L 34 64.5 L 32 64.5 L 33 68.5 L 31 68.5 L 32 73.5 L 30 73.5 L 31 79.5 L 29 79.5 Q 27.8 84.2 30 85.5 L 28 86 L 28 92.5 L 29 93.5 L 27.5 93 L 25 91.5 L 25 89.5 L 24.5 88 L 23 88.5 L 23.5 87 L 22 86.5 L 22 84.5 L 21.5 83 L 20 83.5 L 21 81 L 19 80.5 L 27 60.5 L 39 43 Z " /><path fill="rgb(10,94,155)" stroke="rgb(10,94,155)" stroke-width="1" opacity="1" d="M 114.5 59 Q 116 61.5 121.5 60 Q 122.8 57.8 124 60.5 Q 121.8 61.8 124.5 63 L 145 82.5 Q 132.9 107.4 113.5 125 L 109.5 127 L 106 123.5 L 107 122.5 L 98.5 114 L 92 108.5 L 93 107.5 L 77.5 92 L 76 91.5 L 78 91 L 79 87.5 L 78 84.5 L 80 81.5 L 79.5 80 L 81.5 80 L 85 78.5 L 84.5 77 L 86.5 77 L 90 75.5 L 89.5 74 L 91.5 74 L 95 72.5 L 94.5 71 L 96.5 71 L 100 69.5 L 99.5 68 L 101.5 68 L 105 66.5 L 104.5 65 L 106.5 65 L 110 63.5 L 109.5 62 L 111.5 62 L 115 60.5 L 114.5 59 Z " /><path fill="rgb(10,94,155)" stroke="rgb(10,94,155)" stroke-width="1" opacity="1" d="M 184.5 75 L 183.5 77 L 184.5 75 Z " /><path fill="rgb(10,94,155)" stroke="rgb(10,94,155)" stroke-width="1" opacity="1" d="M 17 88 Q 19.7 86.9 19 89.5 L 21 89.5 L 20 91.5 L 23.5 96 L 25 95.5 L 24 101 L 27 102.5 L 26.5 105 Q 23.9 104.2 25 107.5 L 25.5 109 Q 22.9 108.2 24 111.5 L 24.5 113 Q 21.5 112.1 23 116.5 L 23.5 118 Q 20.5 117.1 22 121.5 L 23 123.5 L 21 123.5 L 22 129.5 L 19.5 134 L 16 118.5 L 16 95.5 L 17 94.5 L 17 88 Z " /><path fill="rgb(10,94,155)" stroke="rgb(10,94,155)" stroke-width="1" opacity="1" d="M 60.5 90 L 61.5 93 L 63 92.5 L 62.5 94 L 65.5 95 L 67 94.5 L 66.5 96 L 71 95.5 L 70.5 94 Q 77.4 95.6 80 101.5 L 84.5 107 Q 85.8 104.8 87 107.5 L 85 107.5 L 82.5 111 L 49.5 134 L 33.5 142 L 25.5 144 L 24 142.5 L 24 134.5 L 25 134.5 L 25.5 143 L 27 121.5 L 26 119.5 L 27 119.5 L 27.5 121 L 28 116.5 L 27.5 115 L 29 115.5 Q 29 107.5 33 103.5 Q 30.7 102.3 33.5 101 L 35 101.5 Q 34.3 99.3 36.5 100 L 36.5 98 L 39.5 99 L 45 96.5 L 44.5 95 L 46.5 96 L 60.5 90 Z " /><path fill="rgb(7,93,156)" stroke="rgb(7,93,156)" stroke-width="1" opacity="0.9686274509803922" d="M 123.5 11 L 128 11.5 L 123.5 12 L 123.5 11 Z " /><path fill="rgb(7,93,156)" stroke="rgb(7,93,156)" stroke-width="1" opacity="0.9686274509803922" d="M 56.5 27 L 54.5 30 L 56.5 27 Z " /><path fill="rgb(7,93,156)" stroke="rgb(7,93,156)" stroke-width="1" opacity="0.9686274509803922" d="M 52.5 30 L 50.5 33 L 52.5 30 Z " /><path fill="rgb(7,93,156)" stroke="rgb(7,93,156)" stroke-width="1" opacity="0.9686274509803922" d="M 38.5 44 L 35.5 48 L 38.5 44 Z " /><path fill="rgb(7,93,156)" stroke="rgb(7,93,156)" stroke-width="1" opacity="0.9686274509803922" d="M 34.5 49 L 32.5 52 L 34.5 49 Z " /><path fill="rgb(7,93,156)" stroke="rgb(7,93,156)" stroke-width="1" opacity="0.9686274509803922" d="M 31.5 53 L 30.5 55 L 31.5 53 Z " /><path fill="rgb(7,93,156)" stroke="rgb(7,93,156)" stroke-width="1" opacity="0.9686274509803922" d="M 29.5 56 L 29 57.5 L 27.5 60 L 28 58.5 L 29.5 56 Z " /><path fill="rgb(7,93,156)" stroke="rgb(7,93,156)" stroke-width="1" opacity="0.9686274509803922" d="M 19.5 77 L 20 79.5 L 19 79.5 L 19.5 77 Z " /><path fill="rgb(7,93,156)" stroke="rgb(7,93,156)" stroke-width="1" opacity="0.9686274509803922" d="M 16.5 89 L 17 91.5 L 16 91.5 L 16.5 89 Z " /><path fill="rgb(7,93,156)" stroke="rgb(7,93,156)" stroke-width="1" opacity="0.9686274509803922" d="M 15.5 96 L 16 101.5 L 15 101.5 L 15.5 96 Z " /><path fill="rgb(7,93,156)" stroke="rgb(7,93,156)" stroke-width="1" opacity="0.9686274509803922" d="M 15.5 109 L 16 116.5 L 15 116.5 L 15.5 109 Z " /><path fill="rgb(7,93,156)" stroke="rgb(7,93,156)" stroke-width="1" opacity="0.9686274509803922" d="M 16.5 119 L 17 123.5 L 16 123.5 L 16.5 119 Z " /><path fill="rgb(7,93,156)" stroke="rgb(7,93,156)" stroke-width="1" opacity="0.9686274509803922" d="M 17.5 125 L 18 128.5 L 17 128.5 L 17.5 125 Z " /><path fill="rgb(104,132,155)" stroke="rgb(104,132,155)" stroke-width="1" opacity="0.9686274509803922" d="M 99.5 9 Q 102.5 10.5 99.5 12 L 99.5 9 Z " /><path fill="rgb(104,132,155)" stroke="rgb(104,132,155)" stroke-width="1" opacity="0.9686274509803922" d="M 93.5 10 Q 95.8 9.3 95 11.5 L 93.5 10 Z " /><path fill="rgb(104,132,155)" stroke="rgb(104,132,155)" stroke-width="1" opacity="0.9686274509803922" d="M 104.5 10 L 105.5 12 Q 102.7 12.7 104.5 10 Z " /><path fill="rgb(104,132,155)" stroke="rgb(104,132,155)" stroke-width="1" opacity="0.9686274509803922" d="M 93.5 14 L 92.5 16 L 93.5 14 Z " /><path fill="rgb(104,132,155)" stroke="rgb(104,132,155)" stroke-width="1" opacity="0.9686274509803922" d="M 90.5 16 L 89.5 18 L 90.5 16 Z " /><path fill="rgb(104,132,155)" stroke="rgb(104,132,155)" stroke-width="1" opacity="0.9686274509803922" d="M 86.5 19 L 85.5 21 L 86.5 19 Z " /><path fill="rgb(104,132,155)" stroke="rgb(104,132,155)" stroke-width="1" opacity="0.9686274509803922" d="M 89.5 19 L 88.5 21 L 89.5 19 Z " /><path fill="rgb(104,132,155)" stroke="rgb(104,132,155)" stroke-width="1" opacity="0.9686274509803922" d="M 156.5 19 L 156 20.5 L 155.5 23 L 155 20.5 L 156.5 19 Z " /><path fill="rgb(104,132,155)" stroke="rgb(104,132,155)" stroke-width="1" opacity="0.9686274509803922" d="M 63.5 21 L 62.5 23 L 63.5 21 Z " /><path fill="rgb(104,132,155)" stroke="rgb(104,132,155)" stroke-width="1" opacity="0.9686274509803922" d="M 153.5 21 L 154 23.5 L 153 23.5 L 153.5 21 Z " /><path fill="rgb(104,132,155)" stroke="rgb(104,132,155)" stroke-width="1" opacity="0.9686274509803922" d="M 81.5 23 L 78.5 27 L 81.5 23 Z " /><path fill="rgb(104,132,155)" stroke="rgb(104,132,155)" stroke-width="1" opacity="0.9686274509803922" d="M 84.5 23 L 80.5 28 L 84.5 23 Z " /><path fill="rgb(104,132,155)" stroke="rgb(104,132,155)" stroke-width="1" opacity="0.9686274509803922" d="M 143.5 24 L 144.5 26 L 143.5 24 Z " /><path fill="rgb(104,132,155)" stroke="rgb(104,132,155)" stroke-width="1" opacity="0.9686274509803922" d="M 62.5 30 L 66 30.5 L 62.5 31 L 62.5 30 Z " /><path fill="rgb(104,132,155)" stroke="rgb(104,132,155)" stroke-width="1" opacity="0.9686274509803922" d="M 62.5 32 L 65 32.5 L 62.5 33 L 62.5 32 Z " /><path fill="rgb(104,132,155)" stroke="rgb(104,132,155)" stroke-width="1" opacity="0.9686274509803922" d="M 160.5 33 Q 160.9 38.1 165 39.5 L 160 35.5 L 160.5 33 Z " /><path fill="rgb(104,132,155)" stroke="rgb(104,132,155)" stroke-width="1" opacity="0.9686274509803922" d="M 75.5 34 L 76 36.5 L 75 36.5 L 75.5 34 Z " /><path fill="rgb(104,132,155)" stroke="rgb(104,132,155)" stroke-width="1" opacity="0.9686274509803922" d="M 47.5 36 L 46.5 38 L 47.5 36 Z " /><path fill="rgb(104,132,155)" stroke="rgb(104,132,155)" stroke-width="1" opacity="0.9686274509803922" d="M 74.5 38 L 75 40.5 L 74 40.5 L 74.5 38 Z " /><path fill="rgb(104,132,155)" stroke="rgb(104,132,155)" stroke-width="1" opacity="0.9686274509803922" d="M 153.5 38 L 157 38.5 L 153.5 39 L 153.5 38 Z " /><path fill="rgb(104,132,155)" stroke="rgb(104,132,155)" stroke-width="1" opacity="0.9686274509803922" d="M 160.5 38 L 161.5 40 L 160.5 38 Z " /><path fill="rgb(104,132,155)" stroke="rgb(104,132,155)" stroke-width="1" opacity="0.9686274509803922" d="M 42.5 39 L 44 39.5 L 42 40.5 L 42.5 42 Q 39.5 40.5 42.5 39 Z " /><path fill="rgb(104,132,155)" stroke="rgb(104,132,155)" stroke-width="1" opacity="0.9686274509803922" d="M 138.5 40 L 137.5 42 L 138.5 40 Z " /><path fill="rgb(104,132,155)" stroke="rgb(104,132,155)" stroke-width="1" opacity="0.9686274509803922" d="M 142.5 40 L 141.5 42 L 142.5 40 Z " /><path fill="rgb(104,132,155)" stroke="rgb(104,132,155)" stroke-width="1" opacity="0.9686274509803922" d="M 71.5 41 L 72 43.5 L 71 43.5 L 71.5 41 Z " /><path fill="rgb(104,132,155)" stroke="rgb(104,132,155)" stroke-width="1" opacity="0.9686274509803922" d="M 164.5 41 L 167.5 45 L 164.5 41 Z " /><path fill="rgb(104,132,155)" stroke="rgb(104,132,155)" stroke-width="1" opacity="0.9686274509803922" d="M 167.5 41 L 171.5 46 L 167.5 41 Z " /><path fill="rgb(104,132,155)" stroke="rgb(104,132,155)" stroke-width="1" opacity="0.9686274509803922" d="M 104.5 44 L 105.5 46 L 104.5 44 Z " /><path fill="rgb(104,132,155)" stroke="rgb(104,132,155)" stroke-width="1" opacity="0.9686274509803922" d="M 108.5 44 L 109.5 46 L 108.5 44 Z " /><path fill="rgb(104,132,155)" stroke="rgb(104,132,155)" stroke-width="1" opacity="0.9686274509803922" d="M 134.5 45 L 133.5 47 L 134.5 45 Z " /><path fill="rgb(104,132,155)" stroke="rgb(104,132,155)" stroke-width="1" opacity="0.9686274509803922" d="M 70.5 46 L 71 48.5 L 70 48.5 L 70.5 46 Z " /><path fill="rgb(104,132,155)" stroke="rgb(104,132,155)" stroke-width="1" opacity="0.9686274509803922" d="M 111.5 46 L 112.5 48 L 111.5 46 Z " /><path fill="rgb(104,132,155)" stroke="rgb(104,132,155)" stroke-width="1" opacity="0.9686274509803922" d="M 72.5 48 L 73 50.5 L 72 50.5 L 72.5 48 Z " /><path fill="rgb(104,132,155)" stroke="rgb(104,132,155)" stroke-width="1" opacity="0.9686274509803922" d="M 125.5 48 L 124.5 50 L 125.5 48 Z " /><path fill="rgb(104,132,155)" stroke="rgb(104,132,155)" stroke-width="1" opacity="0.9686274509803922" d="M 172.5 48 L 179.5 56 L 172.5 48 Z " /><path fill="rgb(104,132,155)" stroke="rgb(104,132,155)" stroke-width="1" opacity="0.9686274509803922" d="M 113.5 50 L 114.5 52 L 113.5 50 Z " /><path fill="rgb(104,132,155)" stroke="rgb(104,132,155)" stroke-width="1" opacity="0.9686274509803922" d="M 126.5 50 L 125.5 52 L 126.5 50 Z " /><path fill="rgb(104,132,155)" stroke="rgb(104,132,155)" stroke-width="1" opacity="0.9686274509803922" d="M 69.5 52 L 70 55.5 L 69 55.5 L 69.5 52 Z " /><path fill="rgb(104,132,155)" stroke="rgb(104,132,155)" stroke-width="1" opacity="0.9686274509803922" d="M 115.5 53 L 116 55.5 L 114 56.5 L 115.5 53 Z " /><path fill="rgb(104,132,155)" stroke="rgb(104,132,155)" stroke-width="1" opacity="0.9686274509803922" d="M 71.5 55 L 72 58.5 L 71 58.5 L 71.5 55 Z " /><path fill="rgb(104,132,155)" stroke="rgb(104,132,155)" stroke-width="1" opacity="0.9686274509803922" d="M 194.5 55 L 195 62.5 L 194 62.5 L 194.5 55 Z " /><path fill="rgb(104,132,155)" stroke="rgb(104,132,155)" stroke-width="1" opacity="0.9686274509803922" d="M 124.5 57 L 127.5 61 L 124.5 57 Z " /><path fill="rgb(104,132,155)" stroke="rgb(104,132,155)" stroke-width="1" opacity="0.9686274509803922" d="M 183.5 57 L 186.5 61 L 183.5 57 Z " /><path fill="rgb(104,132,155)" stroke="rgb(104,132,155)" stroke-width="1" opacity="0.9686274509803922" d="M 123.5 59 L 128.5 65 L 123.5 59 Z " /><path fill="rgb(104,132,155)" stroke="rgb(104,132,155)" stroke-width="1" opacity="0.9686274509803922" d="M 192.5 59 L 193 64.5 L 190.5 66 L 188.5 63 L 192 65 L 192.5 59 Z " /><path fill="rgb(104,132,155)" stroke="rgb(104,132,155)" stroke-width="1" opacity="0.9686274509803922" d="M 68.5 60 L 69 64.5 L 68 64.5 L 68.5 60 Z " /><path fill="rgb(104,132,155)" stroke="rgb(104,132,155)" stroke-width="1" opacity="0.9686274509803922" d="M 183.5 60 L 186.5 64 L 183.5 60 Z " /><path fill="rgb(104,132,155)" stroke="rgb(104,132,155)" stroke-width="1" opacity="0.9686274509803922" d="M 106.5 63 L 105.5 65 L 106.5 63 Z " /><path fill="rgb(104,132,155)" stroke="rgb(104,132,155)" stroke-width="1" opacity="0.9686274509803922" d="M 70.5 64 L 71 76.5 L 70 76.5 L 70.5 64 Z " /><path fill="rgb(104,132,155)" stroke="rgb(104,132,155)" stroke-width="1" opacity="0.9686274509803922" d="M 134.5 66 L 147.5 80 L 134.5 66 Z " /><path fill="rgb(104,132,155)" stroke="rgb(104,132,155)" stroke-width="1" opacity="0.9686274509803922" d="M 193.5 66 L 195 69.5 L 194 69.5 L 193.5 66 Z " /><path fill="rgb(104,132,155)" stroke="rgb(104,132,155)" stroke-width="1" opacity="0.9686274509803922" d="M 188.5 68 L 189 71.5 L 186 73.5 Q 188.8 72.3 188.5 68 Z " /><path fill="rgb(104,132,155)" stroke="rgb(104,132,155)" stroke-width="1" opacity="0.9686274509803922" d="M 32.5 70 L 33 72.5 L 32 72.5 L 32.5 70 Z " /><path fill="rgb(104,132,155)" stroke="rgb(104,132,155)" stroke-width="1" opacity="0.9686274509803922" d="M 34.5 71 L 35 73.5 L 34 73.5 L 34.5 71 Z " /><path fill="rgb(104,132,155)" stroke="rgb(104,132,155)" stroke-width="1" opacity="0.9686274509803922" d="M 67.5 73 L 68 76.5 L 67 76.5 L 67.5 73 Z " /><path fill="rgb(104,132,155)" stroke="rgb(104,132,155)" stroke-width="1" opacity="0.9686274509803922" d="M 189.5 73 L 177.5 86 L 189.5 73 Z " /><path fill="rgb(104,132,155)" stroke="rgb(104,132,155)" stroke-width="1" opacity="0.9686274509803922" d="M 195.5 73 L 196.5 75 L 195.5 73 Z " /><path fill="rgb(104,132,155)" stroke="rgb(104,132,155)" stroke-width="1" opacity="0.9686274509803922" d="M 86.5 75 L 85.5 77 L 86.5 75 Z " /><path fill="rgb(104,132,155)" stroke="rgb(104,132,155)" stroke-width="1" opacity="0.9686274509803922" d="M 31.5 76 L 32 78.5 L 31 78.5 L 31.5 76 Z " /><path fill="rgb(104,132,155)" stroke="rgb(104,132,155)" stroke-width="1" opacity="0.9686274509803922" d="M 33.5 77 L 34 79.5 L 33 79.5 L 33.5 77 Z " /><path fill="rgb(104,132,155)" stroke="rgb(104,132,155)" stroke-width="1" opacity="0.9686274509803922" d="M 182.5 77 L 175.5 85 L 182.5 77 Z " /><path fill="rgb(104,132,155)" stroke="rgb(104,132,155)" stroke-width="1" opacity="0.9686274509803922" d="M 17.5 80 L 19.5 83 L 17.5 80 Z " /><path fill="rgb(104,132,155)" stroke="rgb(104,132,155)" stroke-width="1" opacity="0.9686274509803922" d="M 61.5 80 L 61 81.5 L 60.5 83 L 60 81.5 L 61.5 80 Z " /><path fill="rgb(104,132,155)" stroke="rgb(104,132,155)" stroke-width="1" opacity="0.9686274509803922" d="M 78.5 80 L 77.5 82 L 78.5 80 Z " /><path fill="rgb(104,132,155)" stroke="rgb(104,132,155)" stroke-width="1" opacity="0.9686274509803922" d="M 30.5 82 L 31 84.5 L 30 84.5 L 30.5 82 Z " /><path fill="rgb(104,132,155)" stroke="rgb(104,132,155)" stroke-width="1" opacity="0.9686274509803922" d="M 32.5 83 L 33 86.5 L 32 86.5 L 32.5 83 Z " /><path fill="rgb(104,132,155)" stroke="rgb(104,132,155)" stroke-width="1" opacity="0.9686274509803922" d="M 77.5 83 L 78 87.5 L 77 87.5 L 77.5 83 Z " /><path fill="rgb(104,132,155)" stroke="rgb(104,132,155)" stroke-width="1" opacity="0.9686274509803922" d="M 59.5 84 L 60 86.5 L 59 86.5 L 59.5 84 Z " /><path fill="rgb(104,132,155)" stroke="rgb(104,132,155)" stroke-width="1" opacity="0.9686274509803922" d="M 152.5 85 L 156.5 90 L 152.5 85 Z " /><path fill="rgb(104,132,155)" stroke="rgb(104,132,155)" stroke-width="1" opacity="0.9686274509803922" d="M 21.5 86 L 22.5 88 L 21.5 86 Z " /><path fill="rgb(104,132,155)" stroke="rgb(104,132,155)" stroke-width="1" opacity="0.9686274509803922" d="M 150.5 86 L 156 92.5 L 154.5 95 L 154 93.5 L 155 91.5 L 150.5 86 Z " /><path fill="rgb(104,132,155)" stroke="rgb(104,132,155)" stroke-width="1" opacity="0.9686274509803922" d="M 171.5 87 L 169.5 90 L 171.5 87 Z " /><path fill="rgb(104,132,155)" stroke="rgb(104,132,155)" stroke-width="1" opacity="0.9686274509803922" d="M 173.5 88 L 170.5 92 L 173.5 88 Z " /><path fill="rgb(104,132,155)" stroke="rgb(104,132,155)" stroke-width="1" opacity="0.9686274509803922" d="M 29.5 89 L 30 93.5 L 28 94.5 L 29.5 89 Z " /><path fill="rgb(104,132,155)" stroke="rgb(104,132,155)" stroke-width="1" opacity="0.9686274509803922" d="M 60.5 89 L 61.5 91 L 60.5 89 Z " /><path fill="rgb(104,132,155)" stroke="rgb(104,132,155)" stroke-width="1" opacity="0.9686274509803922" d="M 204.5 90 L 205 91.5 L 203.5 94 L 203 92.5 L 204.5 90 Z " /><path fill="rgb(104,132,155)" stroke="rgb(104,132,155)" stroke-width="1" opacity="0.9686274509803922" d="M 31.5 91 L 33 95.5 L 31 94.5 L 31.5 91 Z " /><path fill="rgb(104,132,155)" stroke="rgb(104,132,155)" stroke-width="1" opacity="0.9686274509803922" d="M 75.5 91 L 85.5 102 L 75.5 91 Z " /><path fill="rgb(104,132,155)" stroke="rgb(104,132,155)" stroke-width="1" opacity="0.9686274509803922" d="M 25.5 92 L 26.5 94 L 25.5 92 Z " /><path fill="rgb(104,132,155)" stroke="rgb(104,132,155)" stroke-width="1" opacity="0.9686274509803922" d="M 23.5 93 L 24.5 95 L 23.5 93 Z " /><path fill="rgb(104,132,155)" stroke="rgb(104,132,155)" stroke-width="1" opacity="0.9686274509803922" d="M 71.5 93 L 73.5 93 L 90 109.5 L 73.5 94 Q 70.5 94.5 71.5 93 Z " /><path fill="rgb(104,132,155)" stroke="rgb(104,132,155)" stroke-width="1" opacity="0.9686274509803922" d="M 207.5 98 L 208 99.5 L 206.5 102 L 206 100.5 L 207.5 98 Z " /><path fill="rgb(104,132,155)" stroke="rgb(104,132,155)" stroke-width="1" opacity="0.9686274509803922" d="M 154.5 99 L 155 100.5 L 153 101.5 L 154.5 99 Z " /><path fill="rgb(104,132,155)" stroke="rgb(104,132,155)" stroke-width="1" opacity="0.9686274509803922" d="M 26.5 101 L 28 104.5 L 27 104.5 L 26.5 101 Z " /><path fill="rgb(104,132,155)" stroke="rgb(104,132,155)" stroke-width="1" opacity="0.9686274509803922" d="M 32.5 101 L 31.5 103 L 32.5 101 Z " /><path fill="rgb(104,132,155)" stroke="rgb(104,132,155)" stroke-width="1" opacity="0.9686274509803922" d="M 166.5 101 L 166 102.5 L 165.5 104 L 165 102.5 L 166.5 101 Z " /><path fill="rgb(104,132,155)" stroke="rgb(104,132,155)" stroke-width="1" opacity="0.9686274509803922" d="M 151.5 102 L 150.5 104 L 151.5 102 Z " /><path fill="rgb(104,132,155)" stroke="rgb(104,132,155)" stroke-width="1" opacity="0.9686274509803922" d="M 148.5 104 L 147.5 106 L 148.5 104 Z " /><path fill="rgb(104,132,155)" stroke="rgb(104,132,155)" stroke-width="1" opacity="0.9686274509803922" d="M 152.5 104 L 151.5 106 L 152.5 104 Z " /><path fill="rgb(104,132,155)" stroke="rgb(104,132,155)" stroke-width="1" opacity="0.9686274509803922" d="M 145.5 106 L 144.5 108 L 145.5 106 Z " /><path fill="rgb(104,132,155)" stroke="rgb(104,132,155)" stroke-width="1" opacity="0.9686274509803922" d="M 149.5 106 L 148.5 108 L 149.5 106 Z " /><path fill="rgb(104,132,155)" stroke="rgb(104,132,155)" stroke-width="1" opacity="0.9686274509803922" d="M 164.5 106 L 167 109.5 L 165 108.5 L 164.5 106 Z " /><path fill="rgb(104,132,155)" stroke="rgb(104,132,155)" stroke-width="1" opacity="0.9686274509803922" d="M 142.5 108 L 141.5 110 L 142.5 108 Z " /><path fill="rgb(104,132,155)" stroke="rgb(104,132,155)" stroke-width="1" opacity="0.9686274509803922" d="M 92.5 109 L 100.5 118 L 92.5 109 Z " /><path fill="rgb(104,132,155)" stroke="rgb(104,132,155)" stroke-width="1" opacity="0.9686274509803922" d="M 168.5 109 L 171 112.5 L 169 111.5 L 168.5 109 Z " /><path fill="rgb(104,132,155)" stroke="rgb(104,132,155)" stroke-width="1" opacity="0.9686274509803922" d="M 139.5 110 L 138.5 112 L 139.5 110 Z " /><path fill="rgb(104,132,155)" stroke="rgb(104,132,155)" stroke-width="1" opacity="0.9686274509803922" d="M 136.5 112 L 135.5 114 L 136.5 112 Z " /><path fill="rgb(104,132,155)" stroke="rgb(104,132,155)" stroke-width="1" opacity="0.9686274509803922" d="M 137.5 114 L 136.5 116 L 137.5 114 Z " /><path fill="rgb(104,132,155)" stroke="rgb(104,132,155)" stroke-width="1" opacity="0.9686274509803922" d="M 94.5 115 L 101.5 123 L 94.5 115 Z " /><path fill="rgb(104,132,155)" stroke="rgb(104,132,155)" stroke-width="1" opacity="0.9686274509803922" d="M 131.5 115 L 130.5 117 L 131.5 115 Z " /><path fill="rgb(104,132,155)" stroke="rgb(104,132,155)" stroke-width="1" opacity="0.9686274509803922" d="M 207.5 115 L 207 116.5 L 207.5 118 L 209 117.5 L 206.5 121 L 207 119.5 L 206.5 118 L 205 118.5 L 207.5 115 Z " /><path fill="rgb(104,132,155)" stroke="rgb(104,132,155)" stroke-width="1" opacity="0.9686274509803922" d="M 134.5 116 L 133.5 118 L 134.5 116 Z " /><path fill="rgb(104,132,155)" stroke="rgb(104,132,155)" stroke-width="1" opacity="0.9686274509803922" d="M 129.5 119 L 128.5 121 L 129.5 119 Z " /><path fill="rgb(104,132,155)" stroke="rgb(104,132,155)" stroke-width="1" opacity="0.9686274509803922" d="M 23.5 120 L 24 122.5 L 23 122.5 L 23.5 120 Z " /><path fill="rgb(104,132,155)" stroke="rgb(104,132,155)" stroke-width="1" opacity="0.9686274509803922" d="M 25.5 120 L 26 122.5 L 25 122.5 L 25.5 120 Z " /><path fill="rgb(104,132,155)" stroke="rgb(104,132,155)" stroke-width="1" opacity="0.9686274509803922" d="M 121.5 121 L 120.5 123 L 121.5 121 Z " /><path fill="rgb(104,132,155)" stroke="rgb(104,132,155)" stroke-width="1" opacity="0.9686274509803922" d="M 124.5 122 L 123.5 124 L 124.5 122 Z " /><path fill="rgb(104,132,155)" stroke="rgb(104,132,155)" stroke-width="1" opacity="0.9686274509803922" d="M 175.5 122 L 177 125.5 L 176 125.5 L 175.5 122 Z " /><path fill="rgb(104,132,155)" stroke="rgb(104,132,155)" stroke-width="1" opacity="0.9686274509803922" d="M 105.5 123 Q 106.9 127.1 112 127.5 L 109.5 128 L 105.5 123 Z " /><path fill="rgb(104,132,155)" stroke="rgb(104,132,155)" stroke-width="1" opacity="0.9686274509803922" d="M 202.5 124 L 201.5 126 L 202.5 124 Z " /><path fill="rgb(104,132,155)" stroke="rgb(104,132,155)" stroke-width="1" opacity="0.9686274509803922" d="M 22.5 125 L 23 128.5 L 22 128.5 L 22.5 125 Z " /><path fill="rgb(104,132,155)" stroke="rgb(104,132,155)" stroke-width="1" opacity="0.9686274509803922" d="M 24.5 126 L 25 130.5 L 24 130.5 L 24.5 126 Z " /><path fill="rgb(104,132,155)" stroke="rgb(104,132,155)" stroke-width="1" opacity="0.9686274509803922" d="M 104.5 126 L 106.5 129 L 104.5 126 Z " /><path fill="rgb(104,132,155)" stroke="rgb(104,132,155)" stroke-width="1" opacity="0.9686274509803922" d="M 203.5 126 L 202.5 128 L 203.5 126 Z " /><path fill="rgb(104,132,155)" stroke="rgb(104,132,155)" stroke-width="1" opacity="0.9686274509803922" d="M 175.5 127 L 177 130.5 L 176 130.5 L 175.5 127 Z " /><path fill="rgb(104,132,155)" stroke="rgb(104,132,155)" stroke-width="1" opacity="0.9686274509803922" d="M 200.5 127 L 199.5 129 L 200.5 127 Z " /><path fill="rgb(104,132,155)" stroke="rgb(104,132,155)" stroke-width="1" opacity="0.9686274509803922" d="M 112.5 129 L 111.5 131 L 112.5 129 Z " /><path fill="rgb(104,132,155)" stroke="rgb(104,132,155)" stroke-width="1" opacity="0.9686274509803922" d="M 201.5 129 L 200.5 131 L 201.5 129 Z " /><path fill="rgb(104,132,155)" stroke="rgb(104,132,155)" stroke-width="1" opacity="0.9686274509803922" d="M 198.5 130 L 196.5 133 L 198.5 130 Z " /><path fill="rgb(104,132,155)" stroke="rgb(104,132,155)" stroke-width="1" opacity="0.9686274509803922" d="M 198.5 133 L 197.5 135 L 198.5 133 Z " /><path fill="rgb(104,132,155)" stroke="rgb(104,132,155)" stroke-width="1" opacity="0.9686274509803922" d="M 21.5 134 L 22 140.5 L 20 141.5 L 21.5 134 Z " /><path fill="rgb(104,132,155)" stroke="rgb(104,132,155)" stroke-width="1" opacity="0.9686274509803922" d="M 113.5 134 L 114.5 136 L 113.5 134 Z " /><path fill="rgb(104,132,155)" stroke="rgb(104,132,155)" stroke-width="1" opacity="0.9686274509803922" d="M 195.5 134 L 192.5 138 L 195.5 134 Z " /><path fill="rgb(104,132,155)" stroke="rgb(104,132,155)" stroke-width="1" opacity="0.9686274509803922" d="M 23.5 137 L 24 142.5 L 23 142.5 L 23.5 137 Z " /><path fill="rgb(104,132,155)" stroke="rgb(104,132,155)" stroke-width="1" opacity="0.9686274509803922" d="M 112.5 137 L 113.5 139 L 112.5 137 Z " /><path fill="rgb(104,132,155)" stroke="rgb(104,132,155)" stroke-width="1" opacity="0.9686274509803922" d="M 195.5 137 L 193.5 140 L 195.5 137 Z " /><path fill="rgb(104,132,155)" stroke="rgb(104,132,155)" stroke-width="1" opacity="0.9686274509803922" d="M 190.5 140 L 189.5 142 L 188 141.5 L 190.5 140 Z " /><path fill="rgb(104,132,155)" stroke="rgb(104,132,155)" stroke-width="1" opacity="0.9686274509803922" d="M 181.5 142 L 180.5 144 L 181.5 142 Z " /><path fill="rgb(104,132,155)" stroke="rgb(104,132,155)" stroke-width="1" opacity="0.9686274509803922" d="M 118.5 143 L 119.5 145 L 118.5 143 Z " /><path fill="rgb(104,132,155)" stroke="rgb(104,132,155)" stroke-width="1" opacity="0.9686274509803922" d="M 190.5 143 L 191 148.5 L 189 149.5 L 190.5 143 Z " /><path fill="rgb(104,132,155)" stroke="rgb(104,132,155)" stroke-width="1" opacity="0.9686274509803922" d="M 116.5 144 L 119 147.5 L 117 146.5 L 116.5 144 Z " /><path fill="rgb(104,132,155)" stroke="rgb(104,132,155)" stroke-width="1" opacity="0.9686274509803922" d="M 178.5 148 L 179 150.5 L 178 150.5 L 178.5 148 Z " /><path fill="rgb(104,132,155)" stroke="rgb(104,132,155)" stroke-width="1" opacity="0.9686274509803922" d="M 24 149 L 27 149.5 L 24.5 151 L 24 149 Z " /><path fill="rgb(104,132,155)" stroke="rgb(104,132,155)" stroke-width="1" opacity="0.9686274509803922" d="M 35.5 149 L 53 149.5 L 35.5 150 L 35.5 149 Z " /><path fill="rgb(104,132,155)" stroke="rgb(104,132,155)" stroke-width="1" opacity="0.9686274509803922" d="M 64.5 149 L 64 150.5 L 63.5 152 L 63 150.5 L 64.5 149 Z " /><path fill="rgb(104,132,155)" stroke="rgb(104,132,155)" stroke-width="1" opacity="0.9686274509803922" d="M 59.5 150 L 62 151.5 L 60.5 151 L 59.5 150 Z " /><path fill="rgb(104,132,155)" stroke="rgb(104,132,155)" stroke-width="1" opacity="0.9686274509803922" d="M 122.5 150 L 123.5 152 L 122.5 150 Z " /><path fill="rgb(104,132,155)" stroke="rgb(104,132,155)" stroke-width="1" opacity="0.9686274509803922" d="M 34.5 151 L 38 151.5 L 34.5 152 L 34.5 151 Z " /><path fill="rgb(104,132,155)" stroke="rgb(104,132,155)" stroke-width="1" opacity="0.9686274509803922" d="M 52.5 151 L 56 151.5 L 52.5 152 L 52.5 151 Z " /><path fill="rgb(104,132,155)" stroke="rgb(104,132,155)" stroke-width="1" opacity="0.9686274509803922" d="M 120.5 151 L 121.5 153 L 120.5 151 Z " /><path fill="rgb(104,132,155)" stroke="rgb(104,132,155)" stroke-width="1" opacity="0.9686274509803922" d="M 188.5 151 L 188 152.5 L 187.5 157 L 187 152.5 L 188.5 151 Z " /><path fill="rgb(104,132,155)" stroke="rgb(104,132,155)" stroke-width="1" opacity="0.9686274509803922" d="M 178.5 153 L 177.5 155 L 178.5 153 Z " /><path fill="rgb(104,132,155)" stroke="rgb(104,132,155)" stroke-width="1" opacity="0.9686274509803922" d="M 173.5 154 L 172.5 156 L 173.5 154 Z " /><path fill="rgb(104,132,155)" stroke="rgb(104,132,155)" stroke-width="1" opacity="0.9686274509803922" d="M 175.5 155 L 174.5 157 L 175.5 155 Z " /><path fill="rgb(104,132,155)" stroke="rgb(104,132,155)" stroke-width="1" opacity="0.9686274509803922" d="M 170.5 156 L 169.5 158 L 170.5 156 Z " /><path fill="rgb(104,132,155)" stroke="rgb(104,132,155)" stroke-width="1" opacity="0.9686274509803922" d="M 126.5 157 L 129 160.5 L 127 159.5 L 126.5 157 Z " /><path fill="rgb(104,132,155)" stroke="rgb(104,132,155)" stroke-width="1" opacity="0.9686274509803922" d="M 172.5 157 L 171.5 159 L 172.5 157 Z " /><path fill="rgb(104,132,155)" stroke="rgb(104,132,155)" stroke-width="1" opacity="0.9686274509803922" d="M 124.5 158 L 127 161.5 L 125 160.5 L 124.5 158 Z " /><path fill="rgb(104,132,155)" stroke="rgb(104,132,155)" stroke-width="1" opacity="0.9686274509803922" d="M 167.5 158 L 166.5 160 L 167.5 158 Z " /><path fill="rgb(104,132,155)" stroke="rgb(104,132,155)" stroke-width="1" opacity="0.9686274509803922" d="M 169.5 159 L 168.5 161 L 169.5 159 Z " /><path fill="rgb(104,132,155)" stroke="rgb(104,132,155)" stroke-width="1" opacity="0.9686274509803922" d="M 164.5 160 L 163.5 162 L 164.5 160 Z " /><path fill="rgb(104,132,155)" stroke="rgb(104,132,155)" stroke-width="1" opacity="0.9686274509803922" d="M 68.5 161 L 69.5 163 L 68.5 161 Z " /><path fill="rgb(104,132,155)" stroke="rgb(104,132,155)" stroke-width="1" opacity="0.9686274509803922" d="M 166.5 161 L 165.5 163 L 166.5 161 Z " /><path fill="rgb(104,132,155)" stroke="rgb(104,132,155)" stroke-width="1" opacity="0.9686274509803922" d="M 163.5 163 L 162.5 165 L 163.5 163 Z " /><path fill="rgb(104,132,155)" stroke="rgb(104,132,155)" stroke-width="1" opacity="0.9686274509803922" d="M 68.5 165 L 71 168.5 L 69 167.5 L 68.5 165 Z " /><path fill="rgb(104,132,155)" stroke="rgb(104,132,155)" stroke-width="1" opacity="0.9686274509803922" d="M 131.5 166 L 132.5 168 L 131.5 166 Z " /><path fill="rgb(104,132,155)" stroke="rgb(104,132,155)" stroke-width="1" opacity="0.9686274509803922" d="M 187.5 166 L 186.5 168 L 187.5 166 Z " /><path fill="rgb(104,132,155)" stroke="rgb(104,132,155)" stroke-width="1" opacity="0.9686274509803922" d="M 72.5 168 L 73.5 170 L 72.5 168 Z " /><path fill="rgb(104,132,155)" stroke="rgb(104,132,155)" stroke-width="1" opacity="0.9686274509803922" d="M 130.5 169 L 132 171.5 L 131 171.5 L 130.5 169 Z " /><path fill="rgb(104,132,155)" stroke="rgb(104,132,155)" stroke-width="1" opacity="0.9686274509803922" d="M 133.5 169 L 134.5 171 L 133.5 169 Z " /><path fill="rgb(104,132,155)" stroke="rgb(104,132,155)" stroke-width="1" opacity="0.9686274509803922" d="M 149.5 169 L 148.5 171 L 149.5 169 Z " /><path fill="rgb(104,132,155)" stroke="rgb(104,132,155)" stroke-width="1" opacity="0.9686274509803922" d="M 71.5 170 L 72.5 172 L 71.5 170 Z " /><path fill="rgb(104,132,155)" stroke="rgb(104,132,155)" stroke-width="1" opacity="0.9686274509803922" d="M 75.5 173 L 76.5 175 L 75.5 173 Z " /><path fill="rgb(104,132,155)" stroke="rgb(104,132,155)" stroke-width="1" opacity="0.9686274509803922" d="M 131.5 173 L 130.5 175 L 131.5 173 Z " /><path fill="rgb(104,132,155)" stroke="rgb(104,132,155)" stroke-width="1" opacity="0.9686274509803922" d="M 74.5 175 L 75.5 177 L 74.5 175 Z " /><path fill="rgb(104,132,155)" stroke="rgb(104,132,155)" stroke-width="1" opacity="0.9686274509803922" d="M 77.5 176 L 78.5 178 L 77.5 176 Z " /><path fill="rgb(104,132,155)" stroke="rgb(104,132,155)" stroke-width="1" opacity="0.9686274509803922" d="M 129.5 176 L 130 178.5 L 128 179.5 L 129.5 176 Z " /><path fill="rgb(104,132,155)" stroke="rgb(104,132,155)" stroke-width="1" opacity="0.9686274509803922" d="M 76.5 178 L 77.5 180 L 76.5 178 Z " /><path fill="rgb(104,132,155)" stroke="rgb(104,132,155)" stroke-width="1" opacity="0.9686274509803922" d="M 79.5 179 L 80.5 181 L 79.5 179 Z " /><path fill="rgb(104,132,155)" stroke="rgb(104,132,155)" stroke-width="1" opacity="0.9686274509803922" d="M 131.5 181 L 132.5 183 L 131.5 181 Z " /><path fill="rgb(104,132,155)" stroke="rgb(104,132,155)" stroke-width="1" opacity="0.9686274509803922" d="M 79.5 182 L 80.5 184 L 79.5 182 Z " /><path fill="rgb(104,132,155)" stroke="rgb(104,132,155)" stroke-width="1" opacity="0.9686274509803922" d="M 142.5 182 L 143.5 184 L 142.5 182 Z " /><path fill="rgb(104,132,155)" stroke="rgb(104,132,155)" stroke-width="1" opacity="0.9686274509803922" d="M 82.5 183 L 83.5 185 L 82.5 183 Z " /><path fill="rgb(104,132,155)" stroke="rgb(104,132,155)" stroke-width="1" opacity="0.9686274509803922" d="M 135.5 183 L 138 183.5 L 135.5 184 L 135.5 183 Z " /><path fill="rgb(104,132,155)" stroke="rgb(104,132,155)" stroke-width="1" opacity="0.9686274509803922" d="M 140.5 183 L 142.5 186 L 140.5 183 Z " /><path fill="rgb(104,132,155)" stroke="rgb(104,132,155)" stroke-width="1" opacity="0.9686274509803922" d="M 81.5 185 L 83.5 188 L 81.5 185 Z " /><path fill="rgb(104,132,155)" stroke="rgb(104,132,155)" stroke-width="1" opacity="0.9686274509803922" d="M 145.5 186 L 146.5 188 L 145.5 186 Z " /><path fill="rgb(104,132,155)" stroke="rgb(104,132,155)" stroke-width="1" opacity="0.9686274509803922" d="M 63.5 188 L 65 188.5 L 61.5 191 L 60.5 189 L 63.5 188 Z " /><path fill="rgb(104,132,155)" stroke="rgb(104,132,155)" stroke-width="1" opacity="0.9686274509803922" d="M 144.5 188 L 146.5 191 L 144.5 188 Z " /><path fill="rgb(104,132,155)" stroke="rgb(104,132,155)" stroke-width="1" opacity="0.9686274509803922" d="M 90.5 189 L 95 190.5 L 91.5 191 L 90.5 189 Z " /><path fill="rgb(104,132,155)" stroke="rgb(104,132,155)" stroke-width="1" opacity="0.9686274509803922" d="M 148.5 190 L 150.5 193 L 148.5 190 Z " /><path fill="rgb(104,132,155)" stroke="rgb(104,132,155)" stroke-width="1" opacity="0.9686274509803922" d="M 77.5 191 L 81 191.5 L 77.5 192 L 77.5 191 Z " /><path fill="rgb(104,132,155)" stroke="rgb(104,132,155)" stroke-width="1" opacity="0.9686274509803922" d="M 93.5 192 L 92 194.5 L 95 198.5 Q 92.8 199.8 95.5 201 L 97 201.5 L 95.5 202 L 91 195.5 L 93.5 192 Z " /><path fill="rgb(104,132,155)" stroke="rgb(104,132,155)" stroke-width="1" opacity="0.9686274509803922" d="M 79.5 193 L 83 193.5 L 79.5 194 L 79.5 193 Z " /><path fill="rgb(104,132,155)" stroke="rgb(104,132,155)" stroke-width="1" opacity="0.9686274509803922" d="M 148.5 193 L 149.5 195 L 148.5 193 Z " /><path fill="rgb(0,0,0)" stroke="rgb(0,0,0)" stroke-width="1" opacity="0" d="M 0 0 L 222 0 L 222 213 L 0 213 L 0 0 Z M 99 9 L 79 14 L 65 21 Q 61 20 62 23 L 43 36 L 27 57 L 20 71 L 15 87 L 14 102 L 13 103 L 15 127 L 20 141 Q 19 145 23 143 Q 23 151 27 157 L 38 172 Q 46 183 61 188 L 60 190 L 77 198 L 94 203 L 97 202 L 103 204 L 123 204 L 149 197 L 171 185 L 186 171 Q 185 167 189 168 Q 205 151 210 123 L 209 118 L 210 113 L 209 109 L 210 106 L 210 93 L 207 79 L 197 57 L 193 54 L 192 50 L 185 41 L 174 30 L 156 18 L 153 18 L 151 16 L 140 12 L 127 9 L 108 9 L 107 10 L 99 9 Z " /><path fill="rgb(37,108,164)" stroke="rgb(37,108,164)" stroke-width="1" opacity="0.9568627450980393" d="M 95.5 11 L 97.5 11 L 99 11.5 L 96.5 13 L 95.5 11 Z " /><path fill="rgb(37,108,164)" stroke="rgb(37,108,164)" stroke-width="1" opacity="0.9568627450980393" d="M 103.5 12 L 107 12.5 L 103.5 13 L 103.5 12 Z " /><path fill="rgb(37,108,164)" stroke="rgb(37,108,164)" stroke-width="1" opacity="0.9568627450980393" d="M 88.5 17 L 87.5 19 L 88.5 17 Z " /><path fill="rgb(37,108,164)" stroke="rgb(37,108,164)" stroke-width="1" opacity="0.9568627450980393" d="M 83.5 21 L 82.5 23 L 83.5 21 Z " /><path fill="rgb(37,108,164)" stroke="rgb(37,108,164)" stroke-width="1" opacity="0.9568627450980393" d="M 87.5 21 L 86.5 23 L 87.5 21 Z " /><path fill="rgb(37,108,164)" stroke="rgb(37,108,164)" stroke-width="1" opacity="0.9568627450980393" d="M 74.5 27 L 73.5 29 L 74.5 27 Z " /><path fill="rgb(37,108,164)" stroke="rgb(37,108,164)" stroke-width="1" opacity="0.9568627450980393" d="M 69.5 29 L 72 29.5 L 69.5 30 L 69.5 29 Z " /><path fill="rgb(37,108,164)" stroke="rgb(37,108,164)" stroke-width="1" opacity="0.9568627450980393" d="M 40.5 41 L 41.5 43 L 40.5 41 Z " /><path fill="rgb(37,108,164)" stroke="rgb(37,108,164)" stroke-width="1" opacity="0.9568627450980393" d="M 113.5 47 L 114.5 49 L 113.5 47 Z " /><path fill="rgb(37,108,164)" stroke="rgb(37,108,164)" stroke-width="1" opacity="0.9568627450980393" d="M 119.5 50 L 122 50.5 L 119.5 51 L 119.5 50 Z " /><path fill="rgb(37,108,164)" stroke="rgb(37,108,164)" stroke-width="1" opacity="0.9568627450980393" d="M 72.5 51 L 73 53.5 L 72 53.5 L 72.5 51 Z " /><path fill="rgb(37,108,164)" stroke="rgb(37,108,164)" stroke-width="1" opacity="0.9568627450980393" d="M 68.5 57 L 69 59.5 L 68 59.5 L 68.5 57 Z " /><path fill="rgb(37,108,164)" stroke="rgb(37,108,164)" stroke-width="1" opacity="0.9568627450980393" d="M 71.5 59 L 72 62.5 L 71 62.5 L 71.5 59 Z " /><path fill="rgb(37,108,164)" stroke="rgb(37,108,164)" stroke-width="1" opacity="0.9568627450980393" d="M 129.5 61 L 133.5 66 L 129.5 61 Z " /><path fill="rgb(37,108,164)" stroke="rgb(37,108,164)" stroke-width="1" opacity="0.9568627450980393" d="M 129.5 65 L 145.5 82 L 129.5 65 Z " /><path fill="rgb(37,108,164)" stroke="rgb(37,108,164)" stroke-width="1" opacity="0.9568627450980393" d="M 67.5 67 L 68 72.5 L 67 72.5 L 67.5 67 Z " /><path fill="rgb(37,108,164)" stroke="rgb(37,108,164)" stroke-width="1" opacity="0.9568627450980393" d="M 18.5 80 L 19.5 82 L 18.5 80 Z " /><path fill="rgb(37,108,164)" stroke="rgb(37,108,164)" stroke-width="1" opacity="0.9568627450980393" d="M 17.5 84 L 18.5 86 L 17.5 84 Z " /><path fill="rgb(37,108,164)" stroke="rgb(37,108,164)" stroke-width="1" opacity="0.9568627450980393" d="M 29.5 86 L 30 88.5 L 29 88.5 L 29.5 86 Z " /><path fill="rgb(37,108,164)" stroke="rgb(37,108,164)" stroke-width="1" opacity="0.9568627450980393" d="M 32.5 87 L 33 89.5 L 32 89.5 L 32.5 87 Z " /><path fill="rgb(37,108,164)" stroke="rgb(37,108,164)" stroke-width="1" opacity="0.9568627450980393" d="M 67.5 94 L 70 94.5 L 67.5 95 L 67.5 94 Z " /><path fill="rgb(37,108,164)" stroke="rgb(37,108,164)" stroke-width="1" opacity="0.9568627450980393" d="M 25.5 96 L 26 100.5 L 25 100.5 L 25.5 96 Z " /><path fill="rgb(37,108,164)" stroke="rgb(37,108,164)" stroke-width="1" opacity="0.9568627450980393" d="M 86.5 102 L 91.5 108 L 86.5 102 Z " /><path fill="rgb(37,108,164)" stroke="rgb(37,108,164)" stroke-width="1" opacity="0.9568627450980393" d="M 101.5 118 L 105.5 123 L 101.5 118 Z " /><path fill="rgb(37,108,164)" stroke="rgb(37,108,164)" stroke-width="1" opacity="0.9568627450980393" d="M 21.5 130 L 22 133.5 L 21 133.5 L 21.5 130 Z " /><path fill="rgb(37,108,164)" stroke="rgb(37,108,164)" stroke-width="1" opacity="0.9568627450980393" d="M 24.5 131 L 25 133.5 L 24 133.5 L 24.5 131 Z " /><path fill="rgb(21,44,65)" stroke="rgb(21,44,65)" stroke-width="1" opacity="0.9882352941176471" d="M 156.5 22 L 157 24.5 L 156 24.5 L 156.5 22 Z " /><path fill="rgb(21,44,65)" stroke="rgb(21,44,65)" stroke-width="1" opacity="0.9882352941176471" d="M 164.5 38 L 166.5 41 L 164.5 38 Z " /><path fill="rgb(21,44,65)" stroke="rgb(21,44,65)" stroke-width="1" opacity="0.9882352941176471" d="M 162.5 40 L 164.5 43 L 162.5 40 Z " /><path fill="rgb(21,44,65)" stroke="rgb(21,44,65)" stroke-width="1" opacity="0.9882352941176471" d="M 157.5 41 L 158 47.5 L 157 47.5 L 157.5 41 Z " /><path fill="rgb(21,44,65)" stroke="rgb(21,44,65)" stroke-width="1" opacity="0.9882352941176471" d="M 170.5 43 L 185.5 59 L 170.5 43 Z " /><path fill="rgb(21,44,65)" stroke="rgb(21,44,65)" stroke-width="1" opacity="0.9882352941176471" d="M 169.5 46 L 181.5 59 L 169.5 46 Z " /><path fill="rgb(21,44,65)" stroke="rgb(21,44,65)" stroke-width="1" opacity="0.9882352941176471" d="M 156.5 50 L 157 53.5 L 156 53.5 L 156.5 50 Z " /><path fill="rgb(21,44,65)" stroke="rgb(21,44,65)" stroke-width="1" opacity="0.9882352941176471" d="M 155.5 56 L 156 58.5 L 155 58.5 L 155.5 56 Z " /><path fill="rgb(21,44,65)" stroke="rgb(21,44,65)" stroke-width="1" opacity="0.9882352941176471" d="M 187.5 61 L 189.5 64 L 187.5 61 Z " /><path fill="rgb(21,44,65)" stroke="rgb(21,44,65)" stroke-width="1" opacity="0.9882352941176471" d="M 185.5 63 L 187.5 66 L 185.5 63 Z " /><path fill="rgb(21,44,65)" stroke="rgb(21,44,65)" stroke-width="1" opacity="0.9882352941176471" d="M 195.5 69 L 197 73.5 L 195 72.5 L 195.5 69 Z " /><path fill="rgb(21,44,65)" stroke="rgb(21,44,65)" stroke-width="1" opacity="0.9882352941176471" d="M 185.5 78 L 184.5 80 L 185.5 78 Z " /><path fill="rgb(21,44,65)" stroke="rgb(21,44,65)" stroke-width="1" opacity="0.9882352941176471" d="M 149.5 81 L 157.5 89 L 160 89.5 L 157.5 90 L 149.5 81 Z " /><path fill="rgb(21,44,65)" stroke="rgb(21,44,65)" stroke-width="1" opacity="0.9882352941176471" d="M 175.5 83 L 173.5 86 L 175.5 83 Z " /><path fill="rgb(21,44,65)" stroke="rgb(21,44,65)" stroke-width="1" opacity="0.9882352941176471" d="M 144.5 86 L 143.5 88 L 144.5 86 Z " /><path fill="rgb(21,44,65)" stroke="rgb(21,44,65)" stroke-width="1" opacity="0.9882352941176471" d="M 176.5 86 L 173.5 90 L 176.5 86 Z " /><path fill="rgb(21,44,65)" stroke="rgb(21,44,65)" stroke-width="1" opacity="0.9882352941176471" d="M 169.5 88 L 167.5 91 L 169.5 88 Z " /><path fill="rgb(21,44,65)" stroke="rgb(21,44,65)" stroke-width="1" opacity="0.9882352941176471" d="M 141.5 91 L 140.5 93 L 141.5 91 Z " /><path fill="rgb(21,44,65)" stroke="rgb(21,44,65)" stroke-width="1" opacity="0.9882352941176471" d="M 139.5 94 L 138.5 96 L 139.5 94 Z " /><path fill="rgb(21,44,65)" stroke="rgb(21,44,65)" stroke-width="1" opacity="0.9882352941176471" d="M 153.5 95 L 154 100.5 L 152 101.5 L 153.5 95 Z " /><path fill="rgb(21,44,65)" stroke="rgb(21,44,65)" stroke-width="1" opacity="0.9882352941176471" d="M 168.5 96 L 169 98.5 L 168 98.5 L 168.5 96 Z " /><path fill="rgb(21,44,65)" stroke="rgb(21,44,65)" stroke-width="1" opacity="0.9882352941176471" d="M 137.5 97 L 136.5 99 L 137.5 97 Z " /><path fill="rgb(21,44,65)" stroke="rgb(21,44,65)" stroke-width="1" opacity="0.9882352941176471" d="M 135.5 100 L 133.5 103 L 135.5 100 Z " /><path fill="rgb(21,44,65)" stroke="rgb(21,44,65)" stroke-width="1" opacity="0.9882352941176471" d="M 150.5 102 L 149.5 104 L 150.5 102 Z " /><path fill="rgb(21,44,65)" stroke="rgb(21,44,65)" stroke-width="1" opacity="0.9882352941176471" d="M 132.5 104 L 130.5 107 L 132.5 104 Z " /><path fill="rgb(21,44,65)" stroke="rgb(21,44,65)" stroke-width="1" opacity="0.9882352941176471" d="M 159.5 104 Q 163.3 103.3 164 105.5 L 162.5 105 Q 158.5 105.8 159.5 104 Z " /><path fill="rgb(21,44,65)" stroke="rgb(21,44,65)" stroke-width="1" opacity="0.9882352941176471" d="M 86.5 108 L 92 112.5 L 87.5 109 L 85.5 110 L 86.5 108 Z " /><path fill="rgb(21,44,65)" stroke="rgb(21,44,65)" stroke-width="1" opacity="0.9882352941176471" d="M 129.5 108 L 127.5 111 L 129.5 108 Z " /><path fill="rgb(21,44,65)" stroke="rgb(21,44,65)" stroke-width="1" opacity="0.9882352941176471" d="M 82.5 111 L 81.5 113 L 82.5 111 Z " /><path fill="rgb(21,44,65)" stroke="rgb(21,44,65)" stroke-width="1" opacity="0.9882352941176471" d="M 135.5 112 L 134.5 114 L 135.5 112 Z " /><path fill="rgb(21,44,65)" stroke="rgb(21,44,65)" stroke-width="1" opacity="0.9882352941176471" d="M 141.5 112 L 140.5 114 L 141.5 112 Z " /><path fill="rgb(21,44,65)" stroke="rgb(21,44,65)" stroke-width="1" opacity="0.9882352941176471" d="M 78.5 114 L 77.5 116 L 78.5 114 Z " /><path fill="rgb(21,44,65)" stroke="rgb(21,44,65)" stroke-width="1" opacity="0.9882352941176471" d="M 124.5 114 L 119.5 120 L 124.5 114 Z " /><path fill="rgb(21,44,65)" stroke="rgb(21,44,65)" stroke-width="1" opacity="0.9882352941176471" d="M 207.5 114 L 206.5 116 L 207.5 114 Z " /><path fill="rgb(21,44,65)" stroke="rgb(21,44,65)" stroke-width="1" opacity="0.9882352941176471" d="M 74.5 117 L 73.5 119 L 74.5 117 Z " /><path fill="rgb(21,44,65)" stroke="rgb(21,44,65)" stroke-width="1" opacity="0.9882352941176471" d="M 71.5 119 L 70.5 121 L 71.5 119 Z " /><path fill="rgb(21,44,65)" stroke="rgb(21,44,65)" stroke-width="1" opacity="0.9882352941176471" d="M 97.5 119 L 102.5 125 L 97.5 119 Z " /><path fill="rgb(21,44,65)" stroke="rgb(21,44,65)" stroke-width="1" opacity="0.9882352941176471" d="M 67.5 122 L 66.5 124 L 67.5 122 Z " /><path fill="rgb(21,44,65)" stroke="rgb(21,44,65)" stroke-width="1" opacity="0.9882352941176471" d="M 206.5 122 L 205.5 124 L 206.5 122 Z " /><path fill="rgb(21,44,65)" stroke="rgb(21,44,65)" stroke-width="1" opacity="0.9882352941176471" d="M 64.5 124 L 63.5 126 L 64.5 124 Z " /><path fill="rgb(21,44,65)" stroke="rgb(21,44,65)" stroke-width="1" opacity="0.9882352941176471" d="M 61.5 126 L 60.5 128 L 61.5 126 Z " /><path fill="rgb(21,44,65)" stroke="rgb(21,44,65)" stroke-width="1" opacity="0.9882352941176471" d="M 58.5 128 L 57.5 130 L 58.5 128 Z " /><path fill="rgb(21,44,65)" stroke="rgb(21,44,65)" stroke-width="1" opacity="0.9882352941176471" d="M 113.5 129 L 112.5 131 L 113.5 129 Z " /><path fill="rgb(21,44,65)" stroke="rgb(21,44,65)" stroke-width="1" opacity="0.9882352941176471" d="M 198.5 129 L 197.5 131 L 198.5 129 Z " /><path fill="rgb(21,44,65)" stroke="rgb(21,44,65)" stroke-width="1" opacity="0.9882352941176471" d="M 55.5 130 L 54.5 132 L 55.5 130 Z " /><path fill="rgb(21,44,65)" stroke="rgb(21,44,65)" stroke-width="1" opacity="0.9882352941176471" d="M 195.5 133 L 194.5 135 L 195.5 133 Z " /><path fill="rgb(21,44,65)" stroke="rgb(21,44,65)" stroke-width="1" opacity="0.9882352941176471" d="M 197.5 135 L 196.5 137 L 197.5 135 Z " /><path fill="rgb(21,44,65)" stroke="rgb(21,44,65)" stroke-width="1" opacity="0.9882352941176471" d="M 45.5 136 L 44.5 138 L 45.5 136 Z " /><path fill="rgb(21,44,65)" stroke="rgb(21,44,65)" stroke-width="1" opacity="0.9882352941176471" d="M 191.5 138 L 189.5 141 L 191.5 138 Z " /><path fill="rgb(21,44,65)" stroke="rgb(21,44,65)" stroke-width="1" opacity="0.9882352941176471" d="M 194.5 139 L 192.5 142 L 194.5 139 Z " /><path fill="rgb(21,44,65)" stroke="rgb(21,44,65)" stroke-width="1" opacity="0.9882352941176471" d="M 113.5 140 L 114.5 142 L 113.5 140 Z " /><path fill="rgb(21,44,65)" stroke="rgb(21,44,65)" stroke-width="1" opacity="0.9882352941176471" d="M 191.5 144 L 192 146.5 L 191 146.5 L 191.5 144 Z " /><path fill="rgb(21,44,65)" stroke="rgb(21,44,65)" stroke-width="1" opacity="0.9882352941176471" d="M 24.5 145 Q 26.8 144.3 26 146.5 L 24.5 145 Z " /><path fill="rgb(21,44,65)" stroke="rgb(21,44,65)" stroke-width="1" opacity="0.9882352941176471" d="M 31.5 148 L 35 148.5 L 31.5 149 L 31.5 148 Z " /><path fill="rgb(21,44,65)" stroke="rgb(21,44,65)" stroke-width="1" opacity="0.9882352941176471" d="M 53.5 148 L 56 148.5 L 53.5 149 L 53.5 148 Z " /><path fill="rgb(21,44,65)" stroke="rgb(21,44,65)" stroke-width="1" opacity="0.9882352941176471" d="M 41.5 152 L 49 152.5 L 41.5 153 L 41.5 152 Z " /><path fill="rgb(21,44,65)" stroke="rgb(21,44,65)" stroke-width="1" opacity="0.9882352941176471" d="M 175.5 152 L 174.5 154 L 175.5 152 Z " /><path fill="rgb(21,44,65)" stroke="rgb(21,44,65)" stroke-width="1" opacity="0.9882352941176471" d="M 172.5 154 L 171.5 156 L 172.5 154 Z " /><path fill="rgb(21,44,65)" stroke="rgb(21,44,65)" stroke-width="1" opacity="0.9882352941176471" d="M 185.5 156 L 186 167.5 L 185 167.5 L 185.5 156 Z " /><path fill="rgb(21,44,65)" stroke="rgb(21,44,65)" stroke-width="1" opacity="0.9882352941176471" d="M 188.5 156 L 189 166.5 L 188 166.5 L 188.5 156 Z " /><path fill="rgb(21,44,65)" stroke="rgb(21,44,65)" stroke-width="1" opacity="0.9882352941176471" d="M 148.5 169 L 147.5 171 L 148.5 169 Z " /><path fill="rgb(21,44,65)" stroke="rgb(21,44,65)" stroke-width="1" opacity="0.9882352941176471" d="M 135.5 170 L 140 170.5 L 135.5 171 L 135.5 170 Z " /><path fill="rgb(21,44,65)" stroke="rgb(21,44,65)" stroke-width="1" opacity="0.9882352941176471" d="M 77.5 175 L 78.5 177 L 77.5 175 Z " /><path fill="rgb(21,44,65)" stroke="rgb(21,44,65)" stroke-width="1" opacity="0.9882352941176471" d="M 79.5 178 L 80.5 180 L 79.5 178 Z " /><path fill="rgb(21,44,65)" stroke="rgb(21,44,65)" stroke-width="1" opacity="0.9882352941176471" d="M 81.5 181 L 82.5 183 L 81.5 181 Z " /><path fill="rgb(21,44,65)" stroke="rgb(21,44,65)" stroke-width="1" opacity="0.9882352941176471" d="M 79.5 183 L 80.5 185 L 79.5 183 Z " /><path fill="rgb(21,44,65)" stroke="rgb(21,44,65)" stroke-width="1" opacity="0.9882352941176471" d="M 144.5 184 L 145.5 186 L 144.5 184 Z " /><path fill="rgb(21,44,65)" stroke="rgb(21,44,65)" stroke-width="1" opacity="0.9882352941176471" d="M 141.5 185 L 143.5 188 L 141.5 185 Z " /><path fill="rgb(21,44,65)" stroke="rgb(21,44,65)" stroke-width="1" opacity="0.9882352941176471" d="M 85.5 186 L 86.5 188 L 85.5 186 Z " /><path fill="rgb(21,44,65)" stroke="rgb(21,44,65)" stroke-width="1" opacity="0.9882352941176471" d="M 61.5 187 L 64 187.5 L 61.5 188 L 61.5 187 Z " /><path fill="rgb(21,44,65)" stroke="rgb(21,44,65)" stroke-width="1" opacity="0.9882352941176471" d="M 82.5 187 L 83.5 189 L 82.5 187 Z " /><path fill="rgb(21,44,65)" stroke="rgb(21,44,65)" stroke-width="1" opacity="0.9882352941176471" d="M 148.5 189 L 149.5 191 L 148.5 189 Z " /><path fill="rgb(21,44,65)" stroke="rgb(21,44,65)" stroke-width="1" opacity="0.9882352941176471" d="M 82.5 190 L 81.5 192 L 82.5 190 Z " /><path fill="rgb(21,44,65)" stroke="rgb(21,44,65)" stroke-width="1" opacity="0.9882352941176471" d="M 145.5 190 L 146.5 192 L 145.5 190 Z " /><path fill="rgb(21,44,65)" stroke="rgb(21,44,65)" stroke-width="1" opacity="0.9882352941176471" d="M 91.5 198 L 92.5 200 L 91.5 198 Z " /><path fill="rgb(0,21,43)" stroke="rgb(0,21,43)" stroke-width="1" opacity="0.9137254901960784" d="M 159.5 22 L 163 24.5 L 161.5 24 L 159.5 22 Z " /><path fill="rgb(0,21,43)" stroke="rgb(0,21,43)" stroke-width="1" opacity="0.9137254901960784" d="M 164.5 25 L 165.5 27 L 164.5 25 Z " /><path fill="rgb(0,21,43)" stroke="rgb(0,21,43)" stroke-width="1" opacity="0.9137254901960784" d="M 167.5 27 L 168.5 29 L 167.5 27 Z " /><path fill="rgb(0,21,43)" stroke="rgb(0,21,43)" stroke-width="1" opacity="0.9137254901960784" d="M 170.5 29 L 183 39.5 L 191 49.5 L 193 54.5 L 192 54.5 Q 185.7 41.3 174.5 33 L 170.5 29 Z " /><path fill="rgb(0,21,43)" stroke="rgb(0,21,43)" stroke-width="1" opacity="0.9137254901960784" d="M 196.5 58 L 199 62.5 L 197 61.5 L 196.5 58 Z " /><path fill="rgb(0,21,43)" stroke="rgb(0,21,43)" stroke-width="1" opacity="0.9137254901960784" d="M 200.5 66 L 204 74.5 L 203 74.5 L 200.5 66 Z " /><path fill="rgb(0,21,43)" stroke="rgb(0,21,43)" stroke-width="1" opacity="0.9137254901960784" d="M 205.5 79 L 207 84.5 L 206 84.5 L 205.5 79 Z " /><path fill="rgb(0,21,43)" stroke="rgb(0,21,43)" stroke-width="1" opacity="0.9137254901960784" d="M 208.5 96 L 209 98.5 L 208 98.5 L 208.5 96 Z " /><path fill="rgb(0,21,43)" stroke="rgb(0,21,43)" stroke-width="1" opacity="0.9137254901960784" d="M 207.5 107 Q 210 108 209 112.5 L 207 113.5 L 208 108.5 L 207.5 107 Z " /><path fill="rgb(0,21,43)" stroke="rgb(0,21,43)" stroke-width="1" opacity="0.9137254901960784" d="M 207.5 125 L 208 127.5 L 206.5 131 L 206 128.5 L 207.5 125 Z " /><path fill="rgb(0,21,43)" stroke="rgb(0,21,43)" stroke-width="1" opacity="0.9137254901960784" d="M 205.5 132 L 206 134.5 L 205 134.5 L 205.5 132 Z " /><path fill="rgb(0,21,43)" stroke="rgb(0,21,43)" stroke-width="1" opacity="0.9137254901960784" d="M 203.5 139 L 204 140.5 L 202.5 143 L 202 141.5 L 203.5 139 Z " /><path fill="rgb(0,21,43)" stroke="rgb(0,21,43)" stroke-width="1" opacity="0.9137254901960784" d="M 200.5 146 L 201 147.5 L 198.5 151 L 199 149.5 L 200.5 146 Z " /><path fill="rgb(0,21,43)" stroke="rgb(0,21,43)" stroke-width="1" opacity="0.9137254901960784" d="M 196.5 154 L 196 155.5 L 194.5 158 L 195 156.5 L 196.5 154 Z " /><path fill="rgb(0,21,43)" stroke="rgb(0,21,43)" stroke-width="1" opacity="0.9137254901960784" d="M 29.5 157 L 30.5 159 L 29.5 157 Z " /><path fill="rgb(0,21,43)" stroke="rgb(0,21,43)" stroke-width="1" opacity="0.9137254901960784" d="M 193.5 159 L 192 161.5 L 189.5 166 L 189 164.5 L 193.5 159 Z " /><path fill="rgb(0,21,43)" stroke="rgb(0,21,43)" stroke-width="1" opacity="0.9137254901960784" d="M 31.5 160 Q 39 172 50 180.5 L 46.5 178 Q 44.3 178.8 45 176.5 Q 35.4 169.7 31.5 160 Z " /><path fill="rgb(0,21,43)" stroke="rgb(0,21,43)" stroke-width="1" opacity="0.9137254901960784" d="M 184.5 170 L 174.5 181 L 162.5 189 L 163.5 187 Q 176.1 180.6 184.5 170 Z " /><path fill="rgb(0,21,43)" stroke="rgb(0,21,43)" stroke-width="1" opacity="0.9137254901960784" d="M 51.5 181 L 58 185.5 L 56.5 186 L 51.5 181 Z " /><path fill="rgb(0,21,43)" stroke="rgb(0,21,43)" stroke-width="1" opacity="0.9137254901960784" d="M 160.5 189 L 159.5 191 L 152.5 194 L 152.5 193 L 160.5 189 Z " /><path fill="rgb(0,21,43)" stroke="rgb(0,21,43)" stroke-width="1" opacity="0.9137254901960784" d="M 65.5 191 L 73 194.5 L 71.5 195 L 65.5 192 L 65.5 191 Z " /><path fill="rgb(0,21,43)" stroke="rgb(0,21,43)" stroke-width="1" opacity="0.9137254901960784" d="M 74.5 195 L 78 196.5 L 76.5 197 L 74.5 195 Z " /><path fill="rgb(0,21,43)" stroke="rgb(0,21,43)" stroke-width="1" opacity="0.9137254901960784" d="M 147.5 195 L 146.5 197 L 130.5 201 L 130.5 200 Q 140.8 199.3 147.5 195 Z " /><path fill="rgb(0,21,43)" stroke="rgb(0,21,43)" stroke-width="1" opacity="0.9137254901960784" d="M 82.5 198 L 85 198.5 L 82.5 199 L 82.5 198 Z " /><path fill="rgb(0,21,43)" stroke="rgb(0,21,43)" stroke-width="1" opacity="0.9137254901960784" d="M 98.5 200 L 102.5 202 L 122.5 202 Q 123.7 199.7 128.5 201 L 128.5 202 Q 123.7 200.8 122.5 203 L 102.5 203 Q 98.5 202.5 98.5 200 Z " /><path fill="rgb(228,233,238)" stroke="rgb(228,233,238)" stroke-width="1" opacity="0.9803921568627451" d="M 107.5 9 L 111.5 12 L 126.5 16 L 151.5 29 L 154 28 L 154 21.5 L 153 20.5 L 153.5 18 Q 156.8 16.9 156 19.5 L 155 22.5 L 156 27.5 L 160 32.5 L 160 35.5 L 164.5 40 L 183 56.5 L 190.5 66 L 193 64.5 L 193 55.5 L 194.5 54 L 194 55.5 Q 195.7 63.7 193 67.5 L 204 89.5 L 210 106 Q 207.3 107.1 208 104.5 Q 203.1 85.9 192.5 73 L 189.5 73 L 168 93.5 Q 168.9 100.9 165 103.5 L 175 121.5 L 183.5 141 L 189.5 142 Q 200.7 130.2 208.5 115 L 209 116.5 Q 201.3 131.8 190 143.5 L 190 148.5 L 187 152.5 L 187 156.5 L 188 157.5 L 188 165.5 L 187.5 168 L 186 166.5 L 186 154 L 178.5 153 L 144 175.5 L 142 182.5 L 151 194.5 L 147 191.5 L 140.5 183 L 133.5 183 L 129.5 181 Q 114.1 189.1 93.5 192 L 91 194.5 L 94.5 199 L 98 201.5 L 96.5 201 L 82.5 193 Q 69.3 193.3 61 188.5 L 62.5 188 Q 70.5 192 82.5 192 Q 84.8 191.3 84 187.5 Q 69.8 171.2 60.5 150 L 51.5 152 L 38.5 152 L 24 149 L 24.5 147 L 35.5 150 L 52.5 150 L 63.5 148 L 81.5 142 L 107 129.5 L 102 122.5 L 73.5 93 L 66.5 94 L 62 92 L 60.5 89 L 33 99 L 29 104.5 L 27 111.5 L 24 126.5 L 24 136.5 L 23 143 Q 20.3 144.1 21 141.5 L 22 140.5 L 22 129.5 L 23 128.5 L 24 117.5 L 28 102.5 L 26 100.5 L 25 94.5 L 16 82.5 Q 18 79 20 83.5 L 27.5 95 L 30 93.5 Q 31.4 60.9 44 39.5 L 42.5 39 L 39 41 L 42.5 36 L 48.5 32 L 49 34 Q 58.3 30 72.5 30 L 78.5 27 L 94.5 14 L 104 10 Q 105.1 12.7 102.5 12 Q 88.9 17.4 80 27.5 Q 78.5 31.9 81.5 31 Q 102 38.5 117.5 51 L 122.5 51 L 148 34.5 Q 149.3 28.4 146.5 29 L 129.5 19 L 106.5 12 L 105 10.5 L 107.5 9 Z M 63 32 L 48 36 Q 40 46 37 60 L 31 92 Q 30 95 33 96 L 43 94 L 60 87 L 62 79 L 68 77 L 69 57 L 73 36 L 73 34 L 73 32 L 63 32 Z M 78 33 L 75 34 L 71 56 L 70 77 L 75 79 L 78 79 L 115 57 Q 117 56 116 53 L 98 40 L 85 34 L 78 33 Z M 148 37 L 127 50 Q 123 51 124 58 L 129 61 L 152 86 L 157 90 Q 164 89 167 92 L 189 72 L 189 67 L 180 56 L 160 38 L 158 38 L 148 37 Z M 116 58 L 79 80 Q 75 82 77 89 L 75 92 L 110 128 Q 134 116 155 101 L 154 99 L 156 92 L 124 59 L 116 58 Z M 155 103 L 111 131 L 133 170 L 143 173 L 149 171 L 177 153 L 179 151 Q 178 144 182 143 Q 175 121 164 104 L 155 103 Z M 108 132 L 92 140 L 63 151 Q 71 169 82 184 L 92 191 Q 112 188 129 180 L 132 174 L 132 171 L 111 134 L 108 132 Z " /><path fill="rgb(4,30,51)" stroke="rgb(4,30,51)" stroke-width="1" opacity="0.9921568627450981" d="M 156.5 21 L 160 23.5 L 158.5 23 L 156.5 21 Z " /><path fill="rgb(4,30,51)" stroke="rgb(4,30,51)" stroke-width="1" opacity="0.9921568627450981" d="M 157.5 27 L 161 29.5 L 159.5 30 L 157.5 27 Z " /><path fill="rgb(4,30,51)" stroke="rgb(4,30,51)" stroke-width="1" opacity="0.9921568627450981" d="M 190.5 60 L 191 62.5 L 189 61.5 L 190.5 60 Z " /><path fill="rgb(4,30,51)" stroke="rgb(4,30,51)" stroke-width="1" opacity="0.9921568627450981" d="M 186.5 68 L 187 70.5 L 186 70.5 L 186.5 68 Z " /><path fill="rgb(4,30,51)" stroke="rgb(4,30,51)" stroke-width="1" opacity="0.9921568627450981" d="M 185.5 72 L 182.5 76 L 185.5 72 Z " /><path fill="rgb(4,30,51)" stroke="rgb(4,30,51)" stroke-width="1" opacity="0.9921568627450981" d="M 207.5 87 L 208 92 L 206 91.5 L 207.5 87 Z " /><path fill="rgb(4,30,51)" stroke="rgb(4,30,51)" stroke-width="1" opacity="0.9921568627450981" d="M 146.5 102 L 149 102.5 L 146.5 103 L 146.5 102 Z " /><path fill="rgb(4,30,51)" stroke="rgb(4,30,51)" stroke-width="1" opacity="0.9921568627450981" d="M 207.5 110 L 208 112.5 L 205 114.5 L 207.5 110 Z " /><path fill="rgb(4,30,51)" stroke="rgb(4,30,51)" stroke-width="1" opacity="0.9921568627450981" d="M 134.5 111 L 133.5 113 L 134.5 111 Z " /><path fill="rgb(4,30,51)" stroke="rgb(4,30,51)" stroke-width="1" opacity="0.9921568627450981" d="M 128.5 115 L 127.5 117 L 128.5 115 Z " /><path fill="rgb(4,30,51)" stroke="rgb(4,30,51)" stroke-width="1" opacity="0.9921568627450981" d="M 122.5 119 L 121.5 121 L 122.5 119 Z " /><path fill="rgb(4,30,51)" stroke="rgb(4,30,51)" stroke-width="1" opacity="0.9921568627450981" d="M 208.5 121 L 208 122.5 L 207.5 125 L 207 122.5 L 208.5 121 Z " /><path fill="rgb(4,30,51)" stroke="rgb(4,30,51)" stroke-width="1" opacity="0.9921568627450981" d="M 103.5 129 L 105 129.5 L 101.5 131 L 101.5 130 L 103.5 129 Z " /><path fill="rgb(4,30,51)" stroke="rgb(4,30,51)" stroke-width="1" opacity="0.9921568627450981" d="M 29.5 146 L 32 146.5 L 29.5 147 L 29.5 146 Z " /><path fill="rgb(4,30,51)" stroke="rgb(4,30,51)" stroke-width="1" opacity="0.9921568627450981" d="M 26.5 150 L 28 152.5 L 26 151.5 L 26.5 150 Z " /><path fill="rgb(4,30,51)" stroke="rgb(4,30,51)" stroke-width="1" opacity="0.9921568627450981" d="M 194.5 156 L 193.5 158 L 194.5 156 Z " /><path fill="rgb(4,30,51)" stroke="rgb(4,30,51)" stroke-width="1" opacity="0.9921568627450981" d="M 162.5 159 L 161.5 161 L 162.5 159 Z " /><path fill="rgb(4,30,51)" stroke="rgb(4,30,51)" stroke-width="1" opacity="0.9921568627450981" d="M 183 168 Q 185.7 166.9 185 169.5 L 179 174.5 L 183 168 Z " /><path fill="rgb(4,30,51)" stroke="rgb(4,30,51)" stroke-width="1" opacity="0.9921568627450981" d="M 137.5 169 L 140 169.5 L 137.5 170 L 137.5 169 Z " /><path fill="rgb(4,30,51)" stroke="rgb(4,30,51)" stroke-width="1" opacity="0.9921568627450981" d="M 172.5 180 L 170.5 183 L 172.5 180 Z " /><path fill="rgb(4,30,51)" stroke="rgb(4,30,51)" stroke-width="1" opacity="0.9921568627450981" d="M 89.5 186 L 90.5 188 L 89.5 186 Z " /><path fill="rgb(4,30,51)" stroke="rgb(4,30,51)" stroke-width="1" opacity="0.9921568627450981" d="M 162.5 186 L 164 186.5 L 152.5 193 L 152.5 192 L 154 191.5 L 149 188.5 L 149.5 187 L 151.5 190 Q 159.3 190.3 162.5 186 Z " /><path fill="rgb(4,30,51)" stroke="rgb(4,30,51)" stroke-width="1" opacity="0.9921568627450981" d="M 81.5 189 L 80.5 191 L 81.5 189 Z " /><path fill="rgb(4,30,51)" stroke="rgb(4,30,51)" stroke-width="1" opacity="0.9921568627450981" d="M 144.5 193 L 146 196 L 138.5 198 L 139.5 196 L 144 195.5 Q 141.8 194.3 144.5 193 Z " /><path fill="rgb(4,30,51)" stroke="rgb(4,30,51)" stroke-width="1" opacity="0.9921568627450981" d="M 88.5 199 Q 91.8 197.9 91 200.5 L 89.5 200 L 88.5 199 Z " /><path fill="rgb(4,30,51)" stroke="rgb(4,30,51)" stroke-width="1" opacity="0.9921568627450981" d="M 105.5 201 L 110 201.5 L 105.5 202 L 105.5 201 Z " /><path fill="rgb(4,30,51)" stroke="rgb(4,30,51)" stroke-width="1" opacity="0.9921568627450981" d="M 112.5 201 L 120 201.5 L 112.5 202 L 112.5 201 Z " /><path fill="rgb(6,30,50)" stroke="rgb(6,30,50)" stroke-width="1" opacity="1" d="M 158.5 23 Q 175.6 31.9 187 46.5 Q 192.4 49.6 191 59.5 L 189.5 61 L 184 55.5 L 173.5 44 L 170.5 42 L 169 42.5 L 169 40.5 L 168.5 38 L 166.5 38 L 164.5 37 L 163 37.5 L 163 35.5 Q 162.3 29.3 158 26.5 L 158.5 23 Z M 183 51 L 184 53 Q 185 50 183 51 Z " /><path fill="rgb(6,30,50)" stroke="rgb(6,30,50)" stroke-width="1" opacity="1" d="M 159.5 38 L 160.5 41 L 164.5 44 L 166 43.5 L 165 44.5 L 168.5 48 L 179 57.5 L 187 67.5 L 186 71.5 L 178 79.5 Q 180.7 81.3 176.5 83 Q 175 80.5 173.5 84 L 170.5 86 L 164.5 90 L 164.5 88 L 160.5 87 L 157.5 88 L 154 83 L 151 81.5 L 149 77.5 L 151 77.5 L 150 74.5 L 152 74.5 L 151 72.5 L 153 72 L 152 69.5 L 154 69.5 L 153 66.5 L 155 66.5 L 154 62.5 L 156 62.5 L 155 59.5 L 157 59.5 L 156 54.5 L 158 54.5 L 157 48.5 L 158 48.5 L 158.5 50 L 159 41.5 L 158 39.5 L 159.5 38 Z " /><path fill="rgb(6,30,50)" stroke="rgb(6,30,50)" stroke-width="1" opacity="1" d="M 196.5 61 Q 204.5 73 207 90.5 L 206 90.5 L 204.5 86 L 203 86.5 L 204 84.5 L 202 84.5 L 203 82.5 L 201 82.5 L 202 80.5 L 200 80.5 L 201 78.5 L 199 78.5 L 200 76.5 Q 194.3 71.5 196.5 61 Z " /><path fill="rgb(6,30,50)" stroke="rgb(6,30,50)" stroke-width="1" opacity="1" d="M 189.5 74 L 193 75 L 193.5 77 L 195 76.5 L 194 78.5 L 201.5 93 L 203 92.5 L 202 95.5 L 205.5 105 L 207 104.5 L 206 106.5 Q 208.3 107.7 207 112.5 L 206.5 115 L 205 114.5 L 201 123.5 L 201.5 125 Q 200.3 122.7 199 125.5 L 200 127.5 L 197 128.5 L 193 134.5 L 193.5 136 L 192.5 135 L 189 137.5 L 189.5 136 Q 186.9 135.3 188 138 L 186 138 L 187 134 L 183.5 133 L 184 134.5 L 183.5 136 L 179.5 127 L 178 127.5 L 179 125.5 L 177 125.5 L 178 123.5 L 169.5 107 L 168 107.5 L 169 105.5 L 166.5 102 Q 167.8 104.3 169 101.5 L 168 99.5 L 170 99.5 Q 168.8 92.8 173 91.5 L 172.5 90 L 173.5 91 L 176.5 88 L 182 83.5 Q 179.2 81.8 183.5 80 Q 185.3 82.8 187 78.5 L 186 77.5 L 189.5 74 Z " /><path fill="rgb(6,30,50)" stroke="rgb(6,30,50)" stroke-width="1" opacity="1" d="M 145.5 85 L 153 91.5 L 154 94.5 L 152 94.5 Q 153.3 100.8 149.5 102 L 146 102.5 L 147.5 105 L 145.5 104 L 144.5 107 L 142.5 107 L 141 107.5 L 141.5 109 L 139.5 109 L 138 109.5 L 138.5 111 L 136.5 111 L 130 114.5 L 130.5 116 L 128.5 115 L 125 117.5 L 125.5 119 L 124 118.5 L 123.5 120 L 121.5 120 L 119 121.5 Q 119.8 123.8 117.5 123 L 116 123.5 L 126 114.5 Q 123.2 112.7 127.5 111 L 129 111.5 L 131 108.5 L 130.5 107 Q 131.8 109.3 133 106.5 L 134 104.5 L 133.5 103 Q 134.8 105.3 136 102.5 L 137 100.5 L 136.5 99 Q 137.7 101.2 139 98.5 L 138 96.5 L 141 95.5 L 140 93.5 L 142 93.5 L 143 91.5 L 142.5 90 Q 143.8 92.3 145 89.5 L 146 86.5 L 145.5 85 Z " /><path fill="rgb(6,30,50)" stroke="rgb(6,30,50)" stroke-width="1" opacity="1" d="M 207.5 92 L 208 94 L 206 93.5 L 207.5 92 Z " /><path fill="rgb(6,30,50)" stroke="rgb(6,30,50)" stroke-width="1" opacity="1" d="M 152.5 105 L 154.5 106 L 157.5 105 L 161.5 106 L 164 108.5 L 164.5 110 L 166 109.5 L 165 111.5 L 167 111.5 L 166 113.5 L 176 133.5 L 174.5 134 L 172 133 L 172.5 136 L 174 135.5 L 175.5 139 L 177 138.5 L 176 136.5 L 177 136.5 L 179 142.5 L 174.5 152 L 169 155.5 L 169.5 157 L 167.5 157 L 166 157.5 L 166.5 159 L 164.5 158 L 158 162.5 L 158.5 164 L 156.5 164 L 153 165.5 L 153.5 167 L 151.5 167 L 146 169.5 L 146.5 171 L 144.5 170 L 144.5 172 L 142 171.5 L 142.5 170 L 140.5 171 L 140 169 L 136.5 170 L 134 169.5 L 134 167.5 L 132.5 164 L 131 164.5 L 132 162.5 L 127.5 155 L 126 155.5 L 127 153.5 L 123.5 148 L 122 148.5 L 123 146.5 L 121 143.5 L 122 141.5 L 118 141.5 L 119 139.5 L 117 139.5 L 118 137.5 L 114.5 132 L 113 132.5 L 118 128.5 L 117.5 127 L 119.5 128 L 122.5 126 L 122.5 127 L 117 130.5 L 119 135.5 L 119 137.5 L 119.5 139 L 122 138.5 L 121 134.5 L 123 133.5 L 120 131.5 L 125 128.5 L 125.5 126 L 128 127 L 129 123.5 L 127 123.5 L 144 112.5 L 143.5 111 L 145.5 112 L 146.5 109 L 148.5 110 L 149.5 107 L 151.5 108 L 152.5 105 Z M 145 113 L 143 116 L 146 114 L 145 113 Z " /><path fill="rgb(6,30,50)" stroke="rgb(6,30,50)" stroke-width="1" opacity="1" d="M 86.5 109 L 95.5 119 L 97 118.5 L 96 119.5 L 102 125.5 L 104 128.5 L 98 132 L 97.5 134 L 95.5 133 L 95.5 135 L 93.5 134 L 88 136.5 L 88.5 138 L 86.5 137 L 86.5 139 L 83.5 138 L 75.5 142 Q 74 139.5 72.5 143 L 64 145 L 63.5 147 L 60 146 L 59.5 148 L 54.5 147 L 50.5 149 L 49.5 148 L 37.5 148 L 35.5 149 L 32 148 Q 33.3 145 29.5 146 L 29.5 148 Q 27.8 144.9 26 146.5 Q 25.3 144.3 27.5 145 L 29.5 145 Q 31.8 145.8 31 143.5 L 32.5 144 Q 34.8 144.8 34 142.5 L 35.5 143 L 37 142.5 L 36.5 141 L 38.5 142 L 38.5 140 L 40.5 141 L 47 137.5 L 46.5 136 L 48.5 137 L 48.5 135 L 50.5 135 L 52 134.5 L 51.5 133 L 53.5 134 L 53.5 132 L 55.5 132 L 57 131.5 L 56.5 130 L 58.5 130 L 60 129.5 L 59.5 128 L 61.5 128 L 63 127.5 L 62.5 126 L 64.5 126 L 66 125.5 L 65.5 124 Q 67 126.5 68.5 123 L 70 122.5 L 69.5 121 L 71.5 121 L 73 120.5 L 72.5 119 L 74.5 119 L 77 117.5 L 76.5 116 L 78.5 116 L 80 115.5 Q 77.8 114.3 80.5 113 Q 82 115.5 83.5 112 L 85 111.5 L 84.5 110 L 86 110.5 L 86.5 109 Z " /><path fill="rgb(6,30,50)" stroke="rgb(6,30,50)" stroke-width="1" opacity="1" d="M 206.5 124 L 207 126.5 L 202 142.5 L 190.5 162 L 189 153.5 L 193 147.5 L 194 141.5 L 199 135.5 L 198.5 134 Q 199.8 136.3 201 133.5 L 202 131.5 L 201.5 130 L 203 130.5 L 204 128.5 L 203.5 127 L 205 127.5 L 206.5 124 Z " /><path fill="rgb(6,30,50)" stroke="rgb(6,30,50)" stroke-width="1" opacity="1" d="M 108.5 132 Q 111.2 133.3 109 134.5 L 116.5 148 L 118 147.5 L 117 149.5 L 120.5 155 L 122 154.5 L 121 156.5 L 125.5 164 L 127 163.5 L 126 165.5 L 130 172.5 L 129.5 175 L 128 174.5 L 127 179 Q 124.3 177.9 125 180.5 L 123.5 180 L 117 182 L 116.5 184 L 113.5 183 L 113.5 185 L 110.5 184 L 110.5 186 L 107 185 L 106.5 187 L 104.5 186 Q 103 189.5 101.5 187 L 98 187.5 L 98.5 189 L 96.5 188 L 93.5 190 L 91 189.5 Q 93.7 187.8 89.5 186 L 88.5 187 Q 85.8 181.6 83 183.5 L 83 181.5 L 73.5 166 L 72 166.5 L 73 164.5 L 69.5 159 L 68 159.5 L 70.5 158 Q 72.3 160.8 74 156.5 L 72 153.5 L 75 152 L 77 147 L 81.5 148 L 81.5 147 L 80 146.5 L 86.5 144 L 86.5 146 L 89 144.5 L 88.5 143 L 90.5 142 L 92 142.5 L 92.5 141 L 94.5 144 L 96 143.5 L 95.5 142 L 102.5 143 L 101 140.5 L 104 137.5 L 105 135.5 L 104.5 134 L 106.5 135 L 106.5 133 L 108.5 134 L 108.5 132 Z " /><path fill="rgb(6,30,50)" stroke="rgb(6,30,50)" stroke-width="1" opacity="1" d="M 31.5 151 L 31.5 153 L 52.5 154 L 59 152.5 L 58.5 151 L 61.5 156 L 63 155.5 L 62 157.5 L 64 157.5 L 63 159.5 L 65 159.5 L 64 161.5 L 68.5 169 L 70 168.5 L 69 170.5 L 73.5 177 L 75 176.5 L 75 178.5 L 75.5 180 L 77 179.5 L 77 181.5 L 82 188.5 Q 81.3 191.8 76.5 191 L 76.5 190 L 78 189.5 L 57.5 185 L 40 170.5 L 29 155.5 L 28 152 L 31.5 151 Z " /><path fill="rgb(6,30,50)" stroke="rgb(6,30,50)" stroke-width="1" opacity="1" d="M 178.5 154 L 181.5 155 L 183 154.5 L 182.5 156 L 184 156.5 L 184 167.5 L 177.5 177 L 169.5 183 L 167 183 Q 168.1 185.7 165.5 185 L 158.5 189 L 151.5 190 L 150 187 L 148 187 L 148 185 Q 145.3 186.1 146 183.5 L 143 182.5 L 146 179.5 Q 145.3 175.8 147.5 175 L 154 171.5 L 153.5 170 L 155.5 171 L 159 168.5 L 158.5 167 L 160.5 168 L 167 163.5 L 166.5 162 L 168.5 162 L 170 161.5 L 169.5 160 L 171.5 160 L 173.5 159 L 173.5 161 L 177 160 L 176.5 158 L 175 158.5 L 175.5 156 L 177.5 157 L 178.5 154 Z M 158 170 L 157 172 L 159 171 L 158 170 Z " /><path fill="rgb(6,30,50)" stroke="rgb(6,30,50)" stroke-width="1" opacity="1" d="M 68.5 155 L 69 156.5 L 67 157.5 L 68.5 155 Z " /><path fill="rgb(6,30,50)" stroke="rgb(6,30,50)" stroke-width="1" opacity="1" d="M 131.5 182 L 131.5 184 L 133.5 183 L 133.5 185 Q 139 186.5 140.5 184 Q 138.9 185.8 142 187.5 L 147 194.5 L 144.5 193 L 143 194.5 L 143.5 196 L 139.5 196 L 134.5 199 L 131 198 Q 132.4 202 125.5 200 L 124.5 201 L 112.5 201 L 110.5 202 L 109.5 201 L 100.5 201 L 99 199.5 Q 99.8 197.3 97.5 198 L 95.5 197 Q 93.8 199.8 92 195.5 L 94 195.5 Q 93.3 193.3 95.5 194 L 105.5 192 L 124 185.5 L 123.5 184 L 126.5 185 L 131.5 182 Z M 102 199 L 102 200 L 105 200 L 102 199 Z " /><path fill="rgb(6,30,50)" stroke="rgb(6,30,50)" stroke-width="1" opacity="1" d="M 80.5 195 L 83.5 196 L 87.5 197 L 89 196.5 L 88.5 198 L 90 198.5 L 87.5 199 L 81.5 197 L 80.5 195 Z " /></svg>